<svg width="32" height="32" viewBox="0 0 32 32" fill="none" xmlns="http://www.w3.org/2000/svg">
<path d="M16 2.66699C18.8289 2.66699 21.5416 3.79073 23.542 5.79102C25.5423 7.79133 26.6669 10.5041 26.667 13.333C26.667 19.9902 19.282 26.9239 16.8018 29.0654C16.5707 29.2392 16.2891 29.333 16 29.333C15.7109 29.333 15.4293 29.2392 15.1982 29.0654C12.718 26.9239 5.33301 19.9902 5.33301 13.333C5.33309 10.5041 6.4577 7.79133 8.45801 5.79102C10.4584 3.79073 13.1711 2.66699 16 2.66699ZM16 8C13.0546 8 10.6672 10.3876 10.667 13.333C10.667 16.2785 13.0545 18.667 16 18.667C18.9455 18.667 21.333 16.2785 21.333 13.333C21.3328 10.3876 18.9454 8 16 8ZM16 10.667C17.4727 10.667 18.6668 11.8604 18.667 13.333C18.667 14.8058 17.4728 16 16 16C14.5272 16 13.333 14.8058 13.333 13.333C13.3332 11.8604 14.5273 10.667 16 10.667Z" fill="#E8E8E4"/>
</svg>
