<svg width="24" height="24" viewBox="0 0 24 24" fill="none" xmlns="http://www.w3.org/2000/svg">
<path d="M12 2C14.1217 2 16.1569 2.84248 17.6572 4.34277C19.1575 5.84306 20 7.87827 20 10C20 14.993 14.4606 20.1928 12.6006 21.7988C12.4273 21.929 12.2167 22 12 22C11.7833 22 11.5727 21.929 11.3994 21.7988C9.53941 20.1928 4 14.993 4 10C4 7.87827 4.84248 5.84306 6.34277 4.34277C7.84306 2.84248 9.87827 2 12 2ZM12 6C9.79086 6 8 7.79086 8 10C8 12.2091 9.79086 14 12 14C14.2091 14 16 12.2091 16 10C16 7.79086 14.2091 6 12 6ZM12 8C13.1046 8 14 8.89543 14 10C14 11.1046 13.1046 12 12 12C10.8954 12 10 11.1046 10 10C10 8.89543 10.8954 8 12 8Z" fill="#003247"/>
</svg>
