<svg width="40" height="40" viewBox="0 0 40 40" fill="inherit" xmlns="http://www.w3.org/2000/svg">
<g id="Categories / Climate" opacity="1" clip-path="url(#clip0_1015_582)" filter="url(#filter0_b_1015_582)">
<g id="Ellipse 50" filter="url(#filter1_b_1015_582)">
<circle cx="20.0002" cy="20" r="19.1667" fill="#003247"/>
</g>
<path id="Vector" d="M21.3473 29.1558C19.9164 29.1558 18.8024 30.2872 18.8024 31.7319C18.8024 33.1767 19.9269 34.2872 21.3264 34.2976C22.7398 34.3081 23.899 33.1523 23.899 31.7319C23.899 30.3011 22.7641 29.1523 21.3473 29.1558ZM23.1018 32.1184C23.0844 32.2089 23.0566 32.2959 23.0218 32.3829C23.0044 32.4247 22.9869 32.4665 22.9695 32.5048C22.9487 32.5431 22.9278 32.5849 22.9069 32.6231C22.8547 32.7102 22.799 32.7972 22.7328 32.8773C22.6945 32.9225 22.6562 32.9643 22.6144 33.0061C22.2768 33.3507 21.8172 33.5596 21.3194 33.5492C20.3342 33.5283 19.5509 32.7067 19.5544 31.7041C19.5544 31.4534 19.6066 31.2167 19.6971 31.0009C19.7424 30.893 19.7981 30.792 19.8607 30.698C19.8851 30.6632 19.9095 30.6284 19.9373 30.597C19.9652 30.5622 19.993 30.5309 20.0209 30.4996C20.0731 30.4334 20.1393 30.3708 20.2054 30.3151C20.2924 30.2419 20.3899 30.1793 20.4909 30.1236C20.5292 30.1027 20.5674 30.0818 20.6092 30.0644C20.6336 30.054 20.658 30.0435 20.6823 30.0331C20.7067 30.0226 20.7311 30.0157 20.7554 30.0087C20.7798 29.9983 20.8007 29.9913 20.8251 29.9843C20.8355 29.9809 20.8425 29.9774 20.8529 29.9774C20.8842 29.9669 20.9156 29.96 20.9469 29.953C20.9713 29.946 20.9922 29.9426 21.0165 29.9391C21.1245 29.9182 21.2393 29.9077 21.3542 29.9077C21.8486 29.9077 22.2977 30.1131 22.6214 30.4439C22.9452 30.7711 23.1471 31.2237 23.1471 31.718C23.1471 31.812 23.1401 31.9025 23.1262 31.993C23.1192 32.0348 23.1123 32.0766 23.1018 32.1184ZM21.3473 29.1558C19.9164 29.1558 18.8024 30.2872 18.8024 31.7319C18.8024 33.1767 19.9269 34.2872 21.3264 34.2976C22.7398 34.3081 23.899 33.1523 23.899 31.7319C23.899 30.3011 22.7641 29.1523 21.3473 29.1558ZM23.1018 32.1184C23.0844 32.2089 23.0566 32.2959 23.0218 32.3829C23.0044 32.4247 22.9869 32.4665 22.9695 32.5048C22.9487 32.5431 22.9278 32.5849 22.9069 32.6231C22.8547 32.7102 22.799 32.7972 22.7328 32.8773C22.6945 32.9225 22.6562 32.9643 22.6144 33.0061C22.2768 33.3507 21.8172 33.5596 21.3194 33.5492C20.3342 33.5283 19.5509 32.7067 19.5544 31.7041C19.5544 31.4534 19.6066 31.2167 19.6971 31.0009C19.7424 30.893 19.7981 30.792 19.8607 30.698C19.8851 30.6632 19.9095 30.6284 19.9373 30.597C19.9652 30.5622 19.993 30.5309 20.0209 30.4996C20.0731 30.4334 20.1393 30.3708 20.2054 30.3151C20.2924 30.2419 20.3899 30.1793 20.4909 30.1236C20.5292 30.1027 20.5674 30.0818 20.6092 30.0644C20.6336 30.054 20.658 30.0435 20.6823 30.0331C20.7067 30.0226 20.7311 30.0157 20.7554 30.0087C20.7798 29.9983 20.8007 29.9913 20.8251 29.9843C20.8355 29.9809 20.8425 29.9774 20.8529 29.9774C20.8842 29.9669 20.9156 29.96 20.9469 29.953C20.9713 29.946 20.9922 29.9426 21.0165 29.9391C21.1245 29.9182 21.2393 29.9077 21.3542 29.9077C21.8486 29.9077 22.2977 30.1131 22.6214 30.4439C22.9452 30.7711 23.1471 31.2237 23.1471 31.718C23.1471 31.812 23.1401 31.9025 23.1262 31.993C23.1192 32.0348 23.1123 32.0766 23.1018 32.1184ZM20 0C8.97128 0 0 8.97476 0 20C0 31.0252 8.97128 40 20 40C31.0287 40 40 31.0287 40 20C40 8.97128 31.0252 0 20 0ZM3.27241 29.0096C2.74674 28.282 2.46475 27.3699 2.14447 26.5135C1.4517 24.651 1.10357 22.7154 1.02698 20.7346C1.01305 20.4456 1.15579 20.1497 1.22193 19.8573C1.5631 18.3847 2.14795 17.0165 3.01131 15.7076C3.69365 16.3899 4.32028 17.0374 4.97824 17.6536C5.14186 17.8068 5.39948 17.9321 5.61532 17.9356C6.83725 17.9634 8.06266 17.9565 9.28459 17.9426C9.58399 17.9426 9.80331 18.0191 10.0191 18.2419C10.8895 19.1401 11.7737 20.0244 12.6614 20.9017C12.8564 21.0931 12.9017 21.2672 12.8216 21.5283C12.6301 22.1514 12.4595 22.7781 12.3098 23.4117C12.2472 23.6797 12.1184 23.7807 11.8573 23.7911C9.98433 23.8747 8.1114 23.9687 6.23847 24.0383C5.8973 24.0522 5.76849 24.1497 5.7859 24.4943C5.80679 24.9678 5.80679 25.4413 5.7859 25.9112C5.77198 26.1967 5.88686 26.329 6.14447 26.4299C7.07398 26.7955 7.98607 27.2063 8.91906 27.5579C9.29852 27.7006 9.45866 27.8851 9.46562 28.3064C9.47607 28.9713 9.58747 29.6327 9.62228 30.2976C9.62924 30.4508 9.55614 30.6562 9.44822 30.7641C8.93995 31.2759 8.41427 31.7737 7.87467 32.2541C7.78068 32.3342 7.55788 32.3655 7.44299 32.3133C5.79634 31.5335 4.3342 30.4822 3.27241 29.0096ZM27.1053 37.7093C18.698 41.1245 9.91471 37.9356 5.36815 32.1323C8.95039 34.2454 12.6092 34.4543 16.4108 32.9121C16.6754 33.8938 17.1349 34.7572 17.8799 35.4325C19.3386 36.7589 21.0409 37.1593 22.9034 36.55C24.7833 35.9373 25.9495 34.5936 26.3081 32.644C26.7084 30.4648 25.7859 28.4909 23.906 27.3455C23.7006 27.2202 23.6136 27.0949 23.6171 26.8581C23.624 24.4665 23.624 22.0748 23.6171 19.6832C23.6136 19.4186 23.6971 19.3142 23.9687 19.3107C24.7554 19.2933 25.4621 19.0183 26.0818 18.5413C26.2907 18.3777 26.409 18.409 26.6144 18.5483C27.8886 19.4256 29.2533 19.5683 30.6284 18.8581C32.0104 18.1445 32.7485 16.9748 32.752 15.3943C32.752 15.1262 32.846 14.9661 33.0513 14.8094C34.8268 13.4169 35.4708 11.074 34.6632 8.96432C33.866 6.88947 31.819 5.57702 29.584 5.71627C29.5561 5.71976 29.5248 5.71279 29.5004 5.72324C28.7485 6.03307 28.2367 5.69887 27.6519 5.21149C25.6466 3.53699 22.8407 3.46736 20.6858 4.95387C20.4804 5.09661 20.3098 5.11053 20.0766 5.0409C18.1514 4.45257 16.1218 5.43081 15.3734 7.31419C15.2724 7.56832 15.1332 7.70757 14.886 7.81897C13.7929 8.30287 12.9678 9.0792 12.4491 10.1654C12.3516 10.3742 12.2437 10.4752 11.9861 10.4752C7.349 10.4508 3.86075 12.463 1.46562 16.4108C1.43081 16.47 1.39252 16.5292 1.35422 16.5849C1.34726 16.5953 1.33333 16.5988 1.31941 16.6057C2.51349 9.0792 8.97824 1.79634 18.2872 0.967798C27.9408 0.104439 36.2437 6.55526 38.4021 15.3768C40.7346 24.9051 35.6623 34.2315 27.1053 37.7093ZM30.0748 18.2594C28.8355 18.7815 27.4639 18.4508 26.5205 17.396C26.4717 17.3473 26.4265 17.2985 26.3359 17.201C25.6327 18.04 24.8007 18.5483 23.6484 18.5309V18.0087C23.6484 16.2576 23.6623 14.5065 23.6484 12.7554C23.6379 11.8085 23.2132 11.0601 22.3464 10.6423C21.5144 10.2419 20.6928 10.3325 19.9513 10.886C19.3838 11.3107 19.1158 11.906 19.0601 12.6057C19.0496 12.7415 19.0566 12.8808 19.0566 12.9817C18.1271 12.4526 17.2393 11.8503 16.2715 11.4291C15.3003 11.0078 14.2559 10.7641 13.208 10.4299C13.6014 9.60835 14.2559 8.93995 15.154 8.58486C15.6693 8.37598 15.9408 8.10096 16.1462 7.57528C16.7728 5.94952 18.611 5.22889 20.2124 5.92515C20.4456 6.02611 20.5953 6.03307 20.8007 5.86945C23.0601 4.06963 26.0574 4.36205 27.9478 6.56919C28.1323 6.78155 28.2681 6.85814 28.5674 6.7537C30.6005 6.03307 32.8216 6.95561 33.7685 8.88425C34.7258 10.8338 34.1097 13.1871 32.3098 14.3638C32.0174 14.5553 31.9269 14.7224 31.9582 15.0844C32.0905 16.4909 31.3316 17.7302 30.0783 18.2594H30.0748ZM17.4099 18.5936C17.2254 18.4056 17.0131 18.2489 16.7694 18.0366C17.4656 17.3438 18.0748 16.7346 18.6841 16.1288C18.7746 16.0453 18.8651 15.9617 19.0113 15.8294C19.0252 16 19.0426 16.1114 19.0426 16.2228C19.0426 19.5022 19.0392 22.7781 19.0496 26.0574C19.0496 26.3603 18.9278 26.4508 18.6701 26.5796C17.9983 26.9138 17.5248 26.7955 17.0409 26.2141C16.7415 25.8555 16.6614 25.5805 16.7485 25.1175C16.9713 23.9408 17.4691 22.9626 18.423 22.2141C18.5587 22.1097 18.6458 21.8625 18.6527 21.6815C18.698 19.8782 18.691 19.8747 17.4099 18.5936ZM19.356 27.906C19.7493 27.7076 19.8433 27.4813 19.8399 27.0809C19.819 25.4935 19.8294 23.9095 19.8294 22.3255V21.8068H21.6989V21.0548H19.8573C19.8468 20.9051 19.8329 20.7972 19.8294 20.6893V18.6527H21.7058V17.9147H19.8642V15.544H21.7023V14.7815C21.2115 14.7815 20.7137 14.7641 20.2228 14.7885C19.9025 14.8059 19.812 14.6945 19.8225 14.3847C19.8468 13.859 19.8259 13.3299 19.8294 12.8007C19.8364 11.8677 20.456 11.2028 21.3264 11.1923C22.1967 11.1819 22.8372 11.8329 22.8721 12.7624C22.8755 12.8738 22.8721 12.9852 22.8721 13.0931C22.8721 17.7789 22.8755 22.4648 22.8651 27.1471C22.8651 27.5022 22.9382 27.7006 23.2933 27.8782C25.0757 28.7624 25.9878 30.7711 25.5422 32.7102C25.107 34.6144 23.3908 36.0139 21.4308 36.0661C19.4743 36.1218 17.7023 34.7746 17.1802 32.8425C16.658 30.9034 17.5527 28.8216 19.356 27.906ZM21.3264 34.2976C22.7398 34.3081 23.899 33.1523 23.899 31.7319C23.899 30.3011 22.7641 29.1523 21.3473 29.1558C19.9164 29.1558 18.8024 30.2872 18.8024 31.7319C18.8024 33.1767 19.9269 34.2872 21.3264 34.2976ZM19.6971 31.0009C19.7424 30.893 19.7981 30.792 19.8607 30.698C19.8851 30.6632 19.9095 30.6284 19.9373 30.597C19.9652 30.5622 19.993 30.5309 20.0209 30.4996C20.0731 30.4334 20.1393 30.3708 20.2054 30.3151C20.2924 30.2419 20.3899 30.1793 20.4909 30.1236C20.5292 30.1027 20.5674 30.0818 20.6092 30.0644C20.6336 30.054 20.658 30.0435 20.6823 30.0331C20.7067 30.0226 20.7311 30.0157 20.7554 30.0087C20.7798 29.9983 20.8007 29.9913 20.8251 29.9843C20.8355 29.9809 20.8425 29.9774 20.8529 29.9774C20.8842 29.9669 20.9156 29.96 20.9469 29.953C20.9713 29.946 20.9922 29.9426 21.0165 29.9391C21.1245 29.9182 21.2393 29.9077 21.3542 29.9077C21.8486 29.9077 22.2977 30.1131 22.6214 30.4439C22.9452 30.7711 23.1471 31.2237 23.1471 31.718C23.1471 31.812 23.1401 31.9025 23.1262 31.993C23.1192 32.0348 23.1123 32.0766 23.1018 32.1184C23.0844 32.2089 23.0566 32.2959 23.0218 32.3829C23.0044 32.4247 22.9869 32.4665 22.9695 32.5048C22.9487 32.5431 22.9278 32.5849 22.9069 32.6231C22.8547 32.7102 22.799 32.7972 22.7328 32.8773C22.6945 32.9225 22.6562 32.9643 22.6144 33.0061C22.2768 33.3507 21.8172 33.5596 21.3194 33.5492C20.3342 33.5283 19.5509 32.7067 19.5544 31.7041C19.5544 31.4534 19.6066 31.2167 19.6971 31.0009ZM21.3473 29.1558C19.9164 29.1558 18.8024 30.2872 18.8024 31.7319C18.8024 33.1767 19.9269 34.2872 21.3264 34.2976C22.7398 34.3081 23.899 33.1523 23.899 31.7319C23.899 30.3011 22.7641 29.1523 21.3473 29.1558ZM23.1018 32.1184C23.0844 32.2089 23.0566 32.2959 23.0218 32.3829C23.0044 32.4247 22.9869 32.4665 22.9695 32.5048C22.9487 32.5431 22.9278 32.5849 22.9069 32.6231C22.8547 32.7102 22.799 32.7972 22.7328 32.8773C22.6945 32.9225 22.6562 32.9643 22.6144 33.0061C22.2768 33.3507 21.8172 33.5596 21.3194 33.5492C20.3342 33.5283 19.5509 32.7067 19.5544 31.7041C19.5544 31.4534 19.6066 31.2167 19.6971 31.0009C19.7424 30.893 19.7981 30.792 19.8607 30.698C19.8851 30.6632 19.9095 30.6284 19.9373 30.597C19.9652 30.5622 19.993 30.5309 20.0209 30.4996C20.0731 30.4334 20.1393 30.3708 20.2054 30.3151C20.2924 30.2419 20.3899 30.1793 20.4909 30.1236C20.5292 30.1027 20.5674 30.0818 20.6092 30.0644C20.6336 30.054 20.658 30.0435 20.6823 30.0331C20.7067 30.0226 20.7311 30.0157 20.7554 30.0087C20.7798 29.9983 20.8007 29.9913 20.8251 29.9843C20.8355 29.9809 20.8425 29.9774 20.8529 29.9774C20.8842 29.9669 20.9156 29.96 20.9469 29.953C20.9713 29.946 20.9922 29.9426 21.0165 29.9391C21.1245 29.9182 21.2393 29.9077 21.3542 29.9077C21.8486 29.9077 22.2977 30.1131 22.6214 30.4439C22.9452 30.7711 23.1471 31.2237 23.1471 31.718C23.1471 31.812 23.1401 31.9025 23.1262 31.993C23.1192 32.0348 23.1123 32.0766 23.1018 32.1184ZM21.3473 29.1558C19.9164 29.1558 18.8024 30.2872 18.8024 31.7319C18.8024 33.1767 19.9269 34.2872 21.3264 34.2976C22.7398 34.3081 23.899 33.1523 23.899 31.7319C23.899 30.3011 22.7641 29.1523 21.3473 29.1558ZM23.1018 32.1184C23.0844 32.2089 23.0566 32.2959 23.0218 32.3829C23.0044 32.4247 22.9869 32.4665 22.9695 32.5048C22.9487 32.5431 22.9278 32.5849 22.9069 32.6231C22.8547 32.7102 22.799 32.7972 22.7328 32.8773C22.6945 32.9225 22.6562 32.9643 22.6144 33.0061C22.2768 33.3507 21.8172 33.5596 21.3194 33.5492C20.3342 33.5283 19.5509 32.7067 19.5544 31.7041C19.5544 31.4534 19.6066 31.2167 19.6971 31.0009C19.7424 30.893 19.7981 30.792 19.8607 30.698C19.8851 30.6632 19.9095 30.6284 19.9373 30.597C19.9652 30.5622 19.993 30.5309 20.0209 30.4996C20.0731 30.4334 20.1393 30.3708 20.2054 30.3151C20.2924 30.2419 20.3899 30.1793 20.4909 30.1236C20.5292 30.1027 20.5674 30.0818 20.6092 30.0644C20.6336 30.054 20.658 30.0435 20.6823 30.0331C20.7067 30.0226 20.7311 30.0157 20.7554 30.0087C20.7798 29.9983 20.8007 29.9913 20.8251 29.9843C20.8355 29.9809 20.8425 29.9774 20.8529 29.9774C20.8842 29.9669 20.9156 29.96 20.9469 29.953C20.9713 29.946 20.9922 29.9426 21.0165 29.9391C21.1245 29.9182 21.2393 29.9077 21.3542 29.9077C21.8486 29.9077 22.2977 30.1131 22.6214 30.4439C22.9452 30.7711 23.1471 31.2237 23.1471 31.718C23.1471 31.812 23.1401 31.9025 23.1262 31.993C23.1192 32.0348 23.1123 32.0766 23.1018 32.1184Z" fill="inherit"/>
</g>
<defs>
<filter id="filter0_b_1015_582" x="-4" y="-4" width="48" height="48" filterUnits="userSpaceOnUse" color-interpolation-filters="sRGB">
<feFlood flood-opacity="0" result="BackgroundImageFix"/>
<feGaussianBlur in="BackgroundImageFix" stdDeviation="2"/>
<feComposite in2="SourceAlpha" operator="in" result="effect1_backgroundBlur_1015_582"/>
<feBlend mode="normal" in="SourceGraphic" in2="effect1_backgroundBlur_1015_582" result="shape"/>
</filter>
<filter id="filter1_b_1015_582" x="-3.1665" y="-3.16663" width="46.3335" height="46.3334" filterUnits="userSpaceOnUse" color-interpolation-filters="sRGB">
<feFlood flood-opacity="0" result="BackgroundImageFix"/>
<feGaussianBlur in="BackgroundImageFix" stdDeviation="2"/>
<feComposite in2="SourceAlpha" operator="in" result="effect1_backgroundBlur_1015_582"/>
<feBlend mode="normal" in="SourceGraphic" in2="effect1_backgroundBlur_1015_582" result="shape"/>
</filter>
<clipPath id="clip0_1015_582">
<rect width="40" height="40" fill="white"/>
</clipPath>
</defs>
</svg>
