<svg width="40" height="40" viewBox="0 0 40 40" fill="inherit" xmlns="http://www.w3.org/2000/svg">
<g opacity="1" clip-path="url(#clip0_1009_905)" filter="url(#filter0_b_1009_905)">
<g filter="url(#filter1_b_1009_905)">
<circle cx="20.0002" cy="20" r="19.1667" fill="none"/>
</g>
<g clip-path="url(#clip1_1009_905)">
<path d="M20 0C8.97128 0 0 8.97128 0 20C0 31.0287 8.97128 40 20 40C31.0287 40 40 31.0287 40 20C40 8.97128 31.0252 0 20 0ZM3.27241 11.1889C5.06179 7.91297 7.6275 5.41688 10.973 3.59965C10.8755 4.74151 10.792 5.78938 10.7015 6.83725C10.517 8.93995 10.3325 11.0426 10.148 13.1453C10.1131 13.5596 10.134 13.9843 10.04 14.3882C9.8973 15.0148 10.0957 15.5126 10.4404 16.0104C10.7885 16.5083 11.0844 17.0409 11.4221 17.5909C10.4265 17.9495 9.80331 18.6005 9.58399 19.6658C8.89121 19.4256 8.20191 19.2202 7.54047 18.9556C7.10531 18.7781 6.70844 18.7815 6.26284 18.9208C4.67189 19.4151 3.07398 19.8747 1.47955 20.3481C1.34726 20.3864 1.21497 20.4212 1.01305 20.4804C0.953873 17.1523 1.70235 14.0714 3.27241 11.1889ZM12.1044 18.2698C13.0688 18.2733 13.8729 19.0601 13.8799 20.0035C13.8869 20.9504 13.0931 21.7372 12.1218 21.7441C11.1471 21.7511 10.3359 20.9817 10.3255 20.0418C10.3151 19.0775 11.1297 18.2663 12.1044 18.2698ZM8.98172 34.9556C8.97476 35.0044 8.96084 35.0531 8.93299 35.1645C4.95387 32.2785 2.45779 28.4839 1.37511 23.6971C2.51349 23.5718 3.60313 23.45 4.68929 23.3316C5.57354 23.2376 6.46127 23.168 7.33855 23.0357C7.63098 22.9904 7.93734 22.8338 8.1671 22.6458C8.73803 22.1793 9.26719 21.6675 9.80679 21.1802C10.1862 21.5109 10.2315 21.8834 10.1828 22.3499C9.94952 24.5152 9.76153 26.6876 9.55614 28.8599C9.36467 30.8895 9.17319 32.9225 8.98172 34.9556ZM14.3882 37.8834C12.8251 37.4099 11.3455 36.7485 9.94604 35.906C9.75109 35.7876 9.6745 35.6728 9.69887 35.4117C9.8973 33.4656 10.0644 31.5161 10.2454 29.5701C10.4717 27.154 10.705 24.738 10.9312 22.3429C11.3316 22.4056 11.7076 22.5065 12.087 22.51C12.456 22.5135 12.8216 22.4195 13.2602 22.3568C13.7511 27.5161 14.2419 32.6997 14.7398 37.9286C14.5901 37.9112 14.4822 37.9147 14.3882 37.8834ZM26.5379 37.5109C23.0531 38.7607 19.4952 38.9869 15.8747 38.2071C15.5892 38.1445 15.4987 38.0366 15.4743 37.7476C15.2167 34.9278 14.9417 32.1079 14.6701 29.2881C14.4439 26.9104 14.2245 24.5326 13.9774 22.1584C13.9356 21.7267 14.148 21.4621 14.4021 21.1384C14.98 21.6606 15.5335 22.1862 16.1218 22.6667C16.3412 22.8477 16.6371 23.0044 16.9156 23.0357C18.8303 23.2654 20.752 23.4674 22.6736 23.6588C23.0218 23.6971 23.2898 23.8016 23.5405 24.0627C23.8642 24.4038 24.2367 24.7032 24.6197 24.9748C24.8425 25.1314 24.9191 25.2916 24.9156 25.5561C24.9051 27.3629 24.9156 29.1697 24.9156 30.9765C24.9156 32.7833 26.054 33.9043 27.8225 33.9043C28.5709 33.9043 29.3229 33.9077 30.0748 33.9043C31.5997 33.8903 32.7624 32.7311 32.7694 31.2097C32.7763 29.5144 32.7868 27.819 32.7624 26.1236C32.7554 25.671 32.8808 25.4169 33.2811 25.1662C36 23.4708 37.4343 20.2089 36.9086 17.0096C36.3725 13.772 33.9983 11.1923 30.8686 10.4508C26.4856 9.40992 21.9739 12.4421 21.3333 16.9017C21.1941 17.866 21.2393 18.8547 21.201 19.8642C21.1558 19.8538 21.0165 19.8225 20.8808 19.7842C19.8155 19.4708 18.7537 19.1436 17.6849 18.8442C17.4865 18.7885 17.2428 18.7955 17.0479 18.8581C16.2472 19.1123 15.4534 19.4012 14.6284 19.6867C14.4334 18.6876 13.866 18.0331 12.9399 17.6397C13.3751 16.9086 13.8103 16.2193 14.2037 15.5057C14.3116 15.3072 14.3603 15.0357 14.3394 14.8094C14.1201 12.5013 13.8834 10.1932 13.6466 7.88512C13.49 6.33943 13.3333 4.79025 13.1697 3.24456C13.1036 2.61793 13.0896 2.60748 13.678 2.42298C21.2289 0.0696257 27.9582 1.53873 33.6258 7.05309C37.3647 10.6945 39.1366 15.2968 38.98 20.5257C38.7502 28.2472 33.8277 34.8929 26.5413 37.5109H26.5379ZM26.0017 31.3943C25.8625 31.3107 25.758 31.168 25.6362 31.0531C25.6641 31.0113 25.6884 30.973 25.7163 30.9312C27.7946 32.0661 29.8764 32.0209 31.9582 30.9312C31.9826 30.9661 32.007 31.0009 32.0313 31.0357C31.9513 31.1332 31.8921 31.2654 31.7946 31.3246C29.8799 32.4386 27.9443 32.5257 26.0017 31.3943ZM31.6867 32.2889C31.2376 32.8842 30.7328 33.1384 30.1201 33.1523C29.2776 33.1732 28.4282 33.1697 27.5822 33.1523C27.0044 33.1419 26.517 32.9051 26.0644 32.3412C27.9826 33.201 29.7963 33.1628 31.6867 32.2889ZM31.7876 30.1097C29.8555 31.2341 27.9095 31.3177 25.96 30.1514C25.8312 30.0748 25.7441 29.9356 25.6362 29.8277C25.6606 29.7894 25.6849 29.7546 25.7128 29.7198C27.7946 30.8372 29.8799 30.8024 31.9687 29.7093C31.9896 29.7476 32.0104 29.7824 32.0348 29.8207C31.9547 29.9182 31.8921 30.0505 31.7876 30.1097ZM25.671 28.5744C27.8921 29.4447 28.8982 29.7755 32.0278 28.6092C31.9478 28.7067 31.8886 28.839 31.7876 28.8982C29.852 30.0087 27.906 30.1027 25.96 28.9295C25.8346 28.8529 25.7441 28.7171 25.671 28.5744ZM32.0244 27.2097C32.0313 27.4639 31.9478 27.6449 31.7076 27.7319C30.9695 27.9896 30.228 28.2541 29.4795 28.4839C29.3821 28.5152 29.1419 28.3864 29.114 28.2855C28.7485 27.0914 28.5883 25.8729 28.8564 24.6301C28.8947 24.4526 28.9678 24.2855 29.02 24.1149C29.1662 23.6345 29.4517 23.443 29.9878 23.4151C32.3029 23.2933 34.2071 21.7476 34.4822 18.7537C33.2533 18.6876 32.0661 18.7467 30.9347 19.1993C29.5735 19.7424 28.8912 20.7624 28.8808 22.228C28.8773 22.4891 28.8773 22.7537 28.8773 23.1262C28.8529 22.7433 28.8599 22.4682 28.8077 22.2002C28.5883 21.0653 27.8607 20.3899 26.7641 20.1462C26.0017 19.9791 25.215 19.9304 24.4386 19.8259C24.1706 21.8242 25.859 23.3943 28.5222 23.7111C27.906 25.2881 28.094 26.8686 28.5326 28.5117C28.2681 28.4943 28.0522 28.4978 27.8433 28.463C27.6136 28.4212 27.3838 28.3551 27.161 28.282C25.7372 27.8155 25.6153 27.7215 25.6919 26.2663C25.7476 25.2741 25.6292 24.47 24.6232 24.0383C22.3081 21.9948 21.4343 19.4395 22.2002 16.4595C22.9452 13.5596 24.8808 11.725 27.8294 11.1227C31.718 10.3255 35.624 13.2428 36.1671 17.1732C36.6301 20.5361 34.9173 23.5335 32.3029 24.8912C32.1671 24.9608 32.0418 25.1767 32.0348 25.3333C32.0035 25.9565 32.0104 26.5831 32.0244 27.2097Z" fill="inherit"/>
</g>
</g>
<defs>
<filter id="filter0_b_1009_905" x="-4" y="-4" width="48" height="48" filterUnits="userSpaceOnUse" color-interpolation-filters="sRGB">
<feFlood flood-opacity="0" result="BackgroundImageFix"/>
<feGaussianBlur in="BackgroundImageFix" stdDeviation="2"/>
<feComposite in2="SourceAlpha" operator="in" result="effect1_backgroundBlur_1009_905"/>
<feBlend mode="normal" in="SourceGraphic" in2="effect1_backgroundBlur_1009_905" result="shape"/>
</filter>
<filter id="filter1_b_1009_905" x="-3.1665" y="-3.16663" width="46.3335" height="46.3334" filterUnits="userSpaceOnUse" color-interpolation-filters="sRGB">
<feFlood flood-opacity="0" result="BackgroundImageFix"/>
<feGaussianBlur in="BackgroundImageFix" stdDeviation="2"/>
<feComposite in2="SourceAlpha" operator="in" result="effect1_backgroundBlur_1009_905"/>
<feBlend mode="normal" in="SourceGraphic" in2="effect1_backgroundBlur_1009_905" result="shape"/>
</filter>
<clipPath id="clip0_1009_905">
<rect width="40" height="40" fill="white"/>
</clipPath>
<clipPath id="clip1_1009_905">
<rect width="40" height="40" fill="white"/>
</clipPath>
</defs>
</svg>
