<svg width="40" height="40" viewBox="0 0 40 40" fill="inherit" xmlns="http://www.w3.org/2000/svg">
<g id="Categories / Forest" opacity="1" clip-path="url(#clip0_1015_1568)" filter="url(#filter0_b_1015_1568)">
<g id="Ellipse 50" filter="url(#filter1_b_1015_1568)">
<circle cx="20.0002" cy="20" r="19.1667" fill="none"/>
</g>
<g id="Vector">
<path d="M6.19375 7.01541C6.67073 6.52798 7.186 6.05449 7.73609 5.5984C7.89277 5.46958 8.05292 5.34076 8.20959 5.2189C8.34537 5.10749 8.48116 5.00305 8.61694 4.90208C8.73183 4.81504 8.84672 4.728 8.96161 4.64444C9.44207 4.29628 9.92602 3.9725 10.4134 3.67308C10.5562 3.58604 10.6989 3.499 10.8452 3.41544C11.0053 3.32144 11.1655 3.23092 11.3256 3.14388C9.4003 4.13613 7.66298 5.44869 6.19375 7.01541ZM24.9491 1.69902C25.0431 1.72687 25.1336 1.75472 25.2276 1.78257C25.3286 1.81391 25.433 1.84524 25.534 1.88006C25.6524 1.91488 25.7707 1.95665 25.8891 1.99495C26.0493 2.05066 26.2094 2.10636 26.3696 2.16903C26.5019 2.21777 26.6377 2.26652 26.77 2.31874C26.8605 2.35356 26.9545 2.39185 27.045 2.42667C27.3409 2.54504 27.6369 2.67386 27.9328 2.80616C28.1313 2.89668 28.3297 2.98721 28.5247 3.08469C28.657 3.14736 28.7858 3.21351 28.9146 3.27966C28.9947 3.31796 29.0713 3.35974 29.1479 3.40151C29.2732 3.46766 29.3986 3.53381 29.5204 3.60345C28.1034 2.78179 26.568 2.13422 24.9491 1.69902Z" fill="inherit"/>
<path d="M20.0017 0C8.97206 0 0 8.97206 0 20.0017C0 31.0314 8.97206 40 20.0017 40C31.0314 40 40.0035 31.0279 40.0035 20.0017C40.0035 8.97554 31.0314 0 20.0017 0ZM1.041 20.9209C1.03055 20.4439 1.03403 19.9739 1.05144 19.5108C1.04796 19.4725 1.05144 19.4342 1.05492 19.3959C1.05492 19.3333 1.0584 19.2671 1.06189 19.2045C1.08277 18.7205 1.12107 18.247 1.17678 17.777C1.17678 17.7143 1.18722 17.6482 1.19767 17.5855C1.20463 17.5054 1.21508 17.4254 1.229 17.3453C1.23248 17.2861 1.24293 17.2304 1.25337 17.1712C1.2673 17.0424 1.28819 16.9101 1.30908 16.7813C1.32649 16.6733 1.34389 16.5654 1.36478 16.4575C1.40656 16.2103 1.45531 15.9631 1.51101 15.7229C1.52842 15.6289 1.54931 15.5349 1.57368 15.4409C1.63635 15.1693 1.70598 14.9012 1.77909 14.6366C1.79302 14.5774 1.81043 14.5148 1.83132 14.4521C1.86613 14.3267 1.90443 14.2014 1.94621 14.0761C2.03325 13.7941 2.12725 13.5121 2.2317 13.237C2.24911 13.1917 2.26652 13.1465 2.28044 13.1047C2.33963 12.948 2.39882 12.7948 2.46497 12.6417C2.52763 12.485 2.59727 12.3283 2.66342 12.1751C2.73305 12.0219 2.80268 11.8653 2.87928 11.7156C2.94891 11.5624 3.0255 11.4127 3.10558 11.2595C3.16477 11.1411 3.22743 11.0227 3.29359 10.9078C3.39455 10.7233 3.499 10.5423 3.60693 10.3612C3.687 10.2254 3.77056 10.0931 3.85412 9.95735C4.00035 9.73105 4.15006 9.50474 4.30673 9.28192C4.36243 9.20184 4.42162 9.11829 4.48081 9.03821C4.728 8.7005 4.98564 8.36626 5.26068 8.04247C5.37558 7.90669 5.49047 7.77439 5.61232 7.64209C5.79685 7.42972 5.99182 7.22082 6.19375 7.01541C7.66298 5.44869 9.4003 4.13613 11.3256 3.14388C11.343 3.13343 11.3569 3.12299 11.3744 3.11951C11.5415 3.02898 11.7086 2.93846 11.8757 2.8549C12.0428 2.76786 12.2134 2.68431 12.3805 2.60771C12.5511 2.52763 12.7183 2.45104 12.8889 2.37793C13.0142 2.32222 13.1395 2.27 13.2649 2.21777C13.3623 2.17948 13.4598 2.14118 13.5573 2.10288C13.8602 1.98451 14.1666 1.8731 14.4765 1.77213C14.6331 1.71991 14.7933 1.67116 14.9534 1.6259C14.9917 1.61198 15.0335 1.60153 15.0718 1.59109C15.2076 1.55279 15.3399 1.51449 15.4757 1.47968C15.8238 1.38915 16.1755 1.30908 16.5306 1.23945C16.6838 1.20811 16.8405 1.18026 16.9971 1.15589C17.025 1.14892 17.0528 1.14544 17.0807 1.14196C17.2513 1.11411 17.4219 1.08974 17.5925 1.06885C17.7387 1.04796 17.8849 1.03055 18.0312 1.01662C18.2575 0.992253 18.4838 0.974845 18.7136 0.960919C18.8424 0.953956 18.9712 0.946993 19.1 0.943511C19.5457 0.926103 19.9948 0.926103 20.4474 0.943511C20.6215 0.950474 20.799 0.960919 20.9766 0.974845C21.1611 0.988772 21.3491 1.0027 21.5336 1.02359C21.5685 1.02707 21.6033 1.03055 21.6416 1.03751C21.7634 1.04796 21.8818 1.06189 22.0037 1.07929C22.2891 1.11411 22.5746 1.15937 22.8601 1.21159C23.0655 1.24641 23.271 1.28471 23.4764 1.32997C23.6818 1.37175 23.8907 1.42049 24.0996 1.46923C24.1031 1.47271 24.11 1.47271 24.1135 1.47619C24.3224 1.52494 24.5313 1.58064 24.7402 1.63983C24.8098 1.65724 24.8794 1.67813 24.9491 1.69902C26.568 2.13422 28.1034 2.78179 29.5204 3.60345C29.5274 3.60693 29.5343 3.61041 29.5413 3.61737C29.6632 3.68352 29.7885 3.75315 29.9069 3.82627C29.973 3.86108 30.0392 3.89938 30.1018 3.94116C30.2307 4.01776 30.3595 4.09435 30.4848 4.17443C30.5161 4.19184 30.544 4.20924 30.5753 4.23361C30.6763 4.29628 30.7773 4.36243 30.8782 4.42858C30.9653 4.48429 31.0488 4.54348 31.1324 4.59918C31.2264 4.66533 31.3204 4.73148 31.4109 4.79763C31.4597 4.83245 31.5084 4.86726 31.5571 4.90208C31.672 4.98564 31.7834 5.0692 31.8949 5.15972C32.1769 5.37209 32.4484 5.59492 32.713 5.8247C32.8627 5.95352 33.009 6.08582 33.1517 6.2216C33.6287 6.66377 34.0778 7.12682 34.4956 7.61772C34.5792 7.71869 34.6662 7.81965 34.7463 7.92062C34.9099 8.11559 35.0666 8.31404 35.2163 8.51945C35.2999 8.63086 35.3834 8.74576 35.467 8.86065C35.4844 8.88154 35.4983 8.90243 35.5122 8.9268C35.5958 9.04169 35.6759 9.15658 35.749 9.27496C35.7942 9.33763 35.836 9.4003 35.8743 9.46296C35.9405 9.56045 36.0066 9.66142 36.0658 9.76586C36.1494 9.89468 36.2329 10.0305 36.3095 10.1662C36.3722 10.2707 36.4314 10.3751 36.4906 10.4831C36.8004 11.0366 37.0859 11.6146 37.3401 12.2099C37.3923 12.3248 37.441 12.4432 37.4898 12.5616C37.5524 12.7078 37.6081 12.854 37.6638 13.0037C37.7335 13.1778 37.7962 13.3554 37.8588 13.5329C37.9215 13.7105 37.9842 13.8915 38.0399 14.0726C38.0851 14.2014 38.1269 14.3337 38.1617 14.466C38.2 14.5809 38.2348 14.6958 38.2662 14.8142C38.2836 14.8734 38.301 14.936 38.3149 14.9952C38.3532 15.124 38.388 15.2528 38.4194 15.3817C38.4577 15.5279 38.496 15.6741 38.5273 15.8203C38.5656 15.9735 38.6004 16.1267 38.6352 16.2799C38.764 16.8718 38.872 17.4811 38.9625 18.1008C38.9242 18.0869 38.8929 18.0764 38.8615 18.066C38.7989 18.0451 38.7501 18.0312 38.7118 18.0172C38.6944 18.0103 38.677 18.0068 38.6596 17.9998C38.6422 17.9929 38.6283 17.9894 38.6108 17.9824C37.2112 17.4567 35.8116 16.924 34.4051 16.4122C34.1718 16.3287 34.0534 16.2347 33.9943 15.977C33.7157 14.7445 33.4024 13.5225 33.1169 12.2935C33.0473 11.9871 32.9115 11.7608 32.5842 11.7539C32.2256 11.7469 32.0898 12.008 32.0167 12.3144C31.8496 13.042 31.6755 13.7697 31.4388 14.4939C31.1324 13.1152 30.8225 11.7364 30.5127 10.3577C30.4709 10.1697 30.4221 9.98172 30.3838 9.79023C30.3247 9.47341 30.1401 9.27844 29.8233 9.27844C29.5065 9.27844 29.3289 9.48734 29.2628 9.7972C29.04 10.7964 28.8171 11.7991 28.5908 12.8018C28.5595 12.948 28.5212 13.0943 28.462 13.338C28.3541 12.8819 28.281 12.5163 28.18 12.1577C28.1104 11.907 27.999 11.6703 27.9084 11.4266C27.8841 11.3604 27.8353 11.3012 27.8353 11.2386C27.8318 9.74845 27.2643 8.36974 26.9928 6.93533C26.9614 6.76821 26.6934 6.55584 26.5088 6.5245C26.2233 6.47576 26.0458 6.68814 25.9762 6.99103C25.6036 8.68657 25.2206 10.3751 24.8377 12.0672C24.688 12.7426 24.4965 13.4146 24.4025 14.1004C24.3468 14.5182 24.1866 14.9047 24.1239 15.3086C24.0578 15.7507 23.8593 15.9074 23.4311 15.9944C22.4006 16.2103 21.3874 16.5062 20.3638 16.7534C20.2315 16.7882 19.9948 16.7708 19.9391 16.6907C19.3646 15.8586 18.8215 15.0057 18.2192 14.09C18.7727 14.1144 19.2393 14.1353 19.8277 14.1631C18.5987 12.6173 17.4393 11.1585 16.2381 9.64749C15.4548 10.6154 14.7028 11.545 13.902 12.5337C12.6103 10.9148 11.3361 9.31674 10.0235 7.66995C8.58909 9.45252 7.18252 11.2003 5.72374 13.0107H7.62817C6.54887 14.8002 5.49395 16.548 4.39029 18.3793H6.39916C5.97789 19.1488 5.60884 19.8242 5.23283 20.4996C5.20846 20.5449 5.11794 20.5692 5.05875 20.5762C4.17791 20.6528 3.30055 20.7294 2.39533 20.806C2.20037 20.8234 2.0054 20.8373 1.81043 20.8547C1.56323 20.8756 1.31604 20.8965 1.06537 20.9174C1.0584 20.9209 1.04796 20.9209 1.041 20.9209ZM28.2914 17.7039C28.7893 15.4687 29.2871 13.2475 29.785 11.0262C29.8094 11.0227 29.8372 11.0227 29.8651 11.0227C30.1297 12.1925 30.3908 13.3658 30.6554 14.5356C30.6798 14.6296 30.6902 14.7271 30.725 14.8177C31.1324 15.9178 30.9722 16.9971 30.6136 18.066C30.5823 18.1704 30.4535 18.3097 30.3664 18.3132C29.8825 18.3375 29.3986 18.3236 28.8624 18.3236C28.8798 18.1286 28.8902 17.972 28.9076 17.77C28.7231 17.7492 28.5386 17.7283 28.2914 17.7039ZM16.4053 22.1777C15.8621 22.1951 15.5557 22.0489 15.3225 21.5406C14.943 20.7085 14.4695 19.9182 14.0413 19.1105C13.7906 18.6404 14.0238 18.2575 14.553 18.254C14.936 18.2505 15.319 18.254 15.8134 18.254C15.4234 17.6586 15.1554 17.1155 14.7654 16.6803C14.1561 15.9979 14.1561 15.3956 14.7306 14.6993C15.0474 14.3093 15.2598 13.8324 15.5557 13.331H14.2676C14.95 12.485 15.5697 11.7156 16.2277 10.8939C16.8648 11.6912 17.4811 12.4641 18.1391 13.2892H16.7639C17.69 14.7028 18.5708 16.0501 19.5039 17.4741H17.864C18.6265 18.912 19.3402 20.2524 20.0749 21.6346C18.8354 22.028 17.6308 22.1394 16.4053 22.1777ZM16.6316 23.0481V23.6435H15.8273C15.7438 23.2744 16.0118 23.076 16.6316 23.0481ZM14.1596 14.1492C13.9925 14.4207 13.8428 14.6749 13.6548 14.9813C13.4633 14.6958 13.3066 14.4625 13.0943 14.1492H14.1596ZM12.8819 13.8115C12.7008 13.5364 12.5442 13.2962 12.3527 13.0107H13.5086C13.2683 13.3171 13.0943 13.5399 12.8819 13.8115ZM10.7999 25.2485C10.7929 25.3286 10.685 25.4086 10.6119 25.4748C10.5771 25.5027 10.504 25.4922 10.4517 25.5027C9.26451 25.7081 9.00339 25.44 9.20533 24.2388H10.8069C10.8069 24.5626 10.8208 24.9038 10.7999 25.2485ZM15.6289 38.4959C14.654 38.2627 13.7244 37.9633 12.8436 37.6047C12.7287 37.5594 12.6138 37.5107 12.4989 37.4584C12.4815 37.4515 12.4606 37.4445 12.4432 37.4341C12.3353 37.3923 12.2273 37.3435 12.1229 37.2948C11.8339 37.1625 11.5484 37.0267 11.2699 36.8805C11.1272 36.8109 10.9879 36.7343 10.8486 36.6577C10.6432 36.5463 10.4413 36.4314 10.2428 36.3095C10.0722 36.2085 9.90513 36.1041 9.74149 35.9962C9.62312 35.9196 9.50474 35.843 9.38985 35.7594C9.13569 35.5923 8.88502 35.4147 8.64131 35.2337C8.63086 35.2267 8.62042 35.2163 8.60997 35.2093C8.54034 35.1571 8.47419 35.1049 8.40804 35.0527C8.33145 34.9935 8.25485 34.9308 8.17826 34.8716C8.16085 34.8577 8.14344 34.8472 8.12951 34.8333C8.11907 34.8264 8.11211 34.8194 8.10166 34.8089C7.96588 34.701 7.8301 34.5896 7.70128 34.4747C7.67343 34.4538 7.64209 34.4295 7.61424 34.4016C7.49238 34.2972 7.37401 34.1927 7.25564 34.0813C7.20341 34.036 7.14771 33.9838 7.09548 33.9351C7.00496 33.8515 6.91792 33.7679 6.83088 33.6809C6.75777 33.6148 6.68814 33.5451 6.6185 33.472C6.52798 33.3815 6.43398 33.2875 6.34694 33.1935L6.31909 33.1656C6.27383 33.1204 6.22857 33.0716 6.18679 33.0229C6.09627 32.9324 6.01271 32.8384 5.92915 32.7444C5.85604 32.6643 5.78292 32.5842 5.71677 32.5007C5.6541 32.431 5.59492 32.3614 5.53573 32.2883C5.44869 32.1908 5.36861 32.0933 5.28854 31.9923C5.24328 31.9366 5.19453 31.8774 5.14927 31.8183C5.06571 31.7173 4.98564 31.6094 4.90904 31.5049C4.84637 31.4248 4.78371 31.3413 4.72452 31.2577C4.69667 31.2229 4.66881 31.1846 4.64444 31.1498C4.634 31.1359 4.62355 31.1219 4.61311 31.1045C4.60614 31.0976 4.60266 31.0871 4.5957 31.0802C4.48429 30.9235 4.37288 30.7668 4.26843 30.6067C4.16398 30.457 4.0665 30.3038 3.9725 30.1506C3.94464 30.1088 3.92027 30.0705 3.8959 30.0287C3.81234 29.8999 3.73575 29.7676 3.66263 29.6388C3.62434 29.5761 3.58604 29.5134 3.5547 29.4543C3.48507 29.3394 3.4224 29.2245 3.35974 29.1061C3.33188 29.0608 3.30751 29.0121 3.28314 28.9634C3.20655 28.8241 3.13343 28.6883 3.06728 28.549C3.06032 28.5421 3.05684 28.5316 3.05336 28.5247C3.03943 28.4968 3.0255 28.469 3.01158 28.4411C3.00461 28.4237 2.99417 28.4063 2.98721 28.3889C2.92802 28.2705 2.87231 28.1556 2.81661 28.0338C2.81313 28.0303 2.81313 28.0233 2.80964 28.0198C2.78179 27.9607 2.75394 27.9015 2.72609 27.8388C2.71564 27.8179 2.7052 27.797 2.69475 27.7726C2.64601 27.6647 2.60075 27.5568 2.55201 27.4454C2.55201 27.4384 2.54852 27.4315 2.54504 27.4245C2.53808 27.4071 2.53112 27.3897 2.52415 27.3723C2.46148 27.233 2.40578 27.0937 2.35007 26.951C2.34659 26.9406 2.33963 26.9266 2.33615 26.9162C2.31178 26.8535 2.28741 26.7908 2.26652 26.7282C2.22126 26.6098 2.17599 26.4879 2.13422 26.3661C2.13073 26.3591 2.13073 26.3556 2.12725 26.3487C2.10984 26.3034 2.09592 26.2582 2.08199 26.2129C2.03673 26.0945 1.99495 25.9727 1.96014 25.8508C1.96014 25.8508 1.95898 25.8485 1.95665 25.8439C1.92532 25.7464 1.89399 25.6524 1.86961 25.5584C1.85569 25.5131 1.84176 25.4678 1.83132 25.4226C1.81043 25.3669 1.79302 25.3112 1.77909 25.252C1.76865 25.2172 1.7582 25.1823 1.74776 25.1441C1.74428 25.1371 1.74428 25.1301 1.7408 25.1232C1.69902 24.9665 1.65724 24.8063 1.61894 24.6462C1.58412 24.5139 1.55279 24.3851 1.52494 24.2528C1.49012 24.117 1.46227 23.9847 1.4379 23.8489C1.40656 23.7096 1.38219 23.5739 1.35782 23.4381C1.25337 22.8462 1.18722 22.2613 1.15589 21.6868C2.33267 21.5719 3.51292 21.4536 4.78022 21.3282C4.48081 21.8888 4.21621 22.3832 3.9342 22.9089C5.31639 23.7027 6.82392 23.8419 8.38367 24.0334C8.38367 24.4547 8.38367 24.8794 8.38715 25.3042C8.38715 25.8438 8.50901 26.0214 9.02428 26.1816C9.67882 26.387 10.3368 26.3765 10.9914 26.1711C11.3918 26.0458 11.6181 25.8021 11.5867 25.346C11.5589 24.9177 11.5798 24.486 11.5798 24.0648C12.7217 23.8628 13.8358 23.6644 14.95 23.4624C15.1031 24.2771 15.3782 24.5313 16.2451 24.4617C16.6107 24.4303 17.0842 24.3294 17.2826 24.0787C17.488 23.8245 17.4184 23.351 17.4741 22.9402C18.059 22.8497 18.7205 22.8706 19.2776 22.6373C20.611 22.0802 21.8853 22.3588 23.2013 22.6617C27.8841 23.7444 32.337 25.3982 36.4383 27.9363C36.6263 28.0512 36.8143 28.173 36.9989 28.2949C37.0093 28.3018 37.0198 28.3158 37.0302 28.3367C37.0372 28.3506 37.0476 28.368 37.0581 28.3889C33.385 35.9822 24.6601 40.6476 15.6289 38.4959ZM37.5907 27.2434C37.542 27.3723 37.4758 27.4906 37.4167 27.609C37.4027 27.6021 37.3923 27.5951 37.3784 27.5881C36.3722 27.0206 35.3939 26.4427 34.3912 25.9135C30.7633 23.9951 26.9057 22.7035 22.9019 21.8331C22.3205 21.7042 21.7321 21.6033 21.1507 21.4779C21.0253 21.4501 20.8512 21.3979 20.799 21.3004C20.2559 20.322 19.7337 19.3333 19.1662 18.2714H20.9418C20.7712 17.9929 20.6424 17.784 20.4648 17.488C21.5754 17.2025 22.6478 16.924 23.7653 16.6385C23.7758 17.213 23.2779 17.9372 24.2806 18.0416C24.4373 18.7867 24.4651 18.8076 25.2381 18.8076H25.9831V19.866H27.0102V18.8145C27.4628 18.8563 27.8597 18.6996 28.274 19.0095C28.4899 19.1731 28.8833 19.1035 29.2384 19.1488C29.2523 19.3437 29.2697 19.5561 29.2906 19.7998H30.3177C30.392 19.3704 30.6635 19.1371 31.1324 19.1C31.2299 19.093 31.3239 19.0547 31.4179 19.0513C31.9297 19.0234 32.0306 19.1209 32.0411 19.6153C32.0585 20.4752 31.8566 20.3882 32.8488 20.3882C32.915 20.3882 32.9811 20.3778 33.103 20.3638C33.103 20.0783 33.1204 19.8033 33.096 19.5317C33.0751 19.2497 33.1413 19.0826 33.4651 19.0791C33.6008 19.0756 33.7366 19.0234 33.8689 18.9782C34.426 18.7797 34.5896 18.4698 34.4503 17.8884C34.3981 17.6656 34.3563 17.4393 34.2763 17.0702C35.5331 17.5577 36.6786 18.0416 37.8519 18.442C37.925 18.4664 37.9981 18.4942 38.0642 18.5221H38.0677C38.1234 18.5464 38.1722 18.5708 38.2209 18.5952C38.301 18.6335 38.3706 18.6753 38.4368 18.7205C38.482 18.7519 38.5273 18.7867 38.5656 18.8215C38.6108 18.8598 38.6526 18.8981 38.6909 18.9433C38.7292 18.9851 38.764 19.0304 38.7954 19.0756C38.8302 19.1279 38.858 19.1766 38.8824 19.2253C38.9033 19.2706 38.9242 19.3193 38.9416 19.3681C38.9451 19.3751 38.9486 19.382 38.9486 19.389C38.9486 19.389 38.952 19.3994 38.952 19.4064C38.9694 19.4482 38.9799 19.4934 38.9903 19.5422C39.0043 19.5944 39.0147 19.6501 39.0217 19.7058C39.0321 19.7615 39.0356 19.8242 39.0391 19.8868C39.0391 19.946 39.046 20.0087 39.046 20.0749C39.046 20.1375 39.046 20.2037 39.0426 20.2698C38.9242 22.6826 38.5029 25.0083 37.5907 27.2434Z" fill="inherit"/>
<path d="M13.5086 13.0107C13.2683 13.3171 13.0943 13.5399 12.8819 13.8115C12.7008 13.5364 12.5442 13.2962 12.3527 13.0107H13.5086Z" fill="black"/>
<path d="M14.1596 14.1492C13.9925 14.4207 13.8428 14.6749 13.6548 14.9813C13.4633 14.6958 13.3066 14.4625 13.0943 14.1492H14.1596Z" fill="black"/>
<path d="M22.8566 32.8036C22.7035 33.1447 22.4737 33.3049 22.0663 33.2457C20.1863 32.9637 18.3027 32.7095 16.4227 32.431C16.0815 32.3823 15.883 32.4658 15.7507 32.7966C15.5732 33.2387 15.3434 33.6148 15.5209 34.1683C15.6149 34.4677 15.2981 34.896 15.1554 35.265C15.1449 35.2894 15.0091 35.3068 14.9813 35.279C14.9291 35.2302 14.8838 35.1327 14.8977 35.0735C14.9465 34.8995 15.0335 34.7393 15.0927 34.5687C15.1345 34.4364 15.1554 34.2972 15.1867 34.1614C15.1519 34.1509 15.1171 34.137 15.0823 34.1231C14.8942 34.4399 14.7236 34.7672 14.5148 35.0666C14.3859 35.2511 14.2049 35.3939 14.0447 35.5575C13.7836 35.2511 14.1144 35.077 14.2153 34.8716C14.4834 34.3459 14.7968 33.8376 15.0892 33.3223C15.0683 33.2945 15.044 33.2631 15.0231 33.2353C14.7236 33.3815 14.4208 33.5312 14.1213 33.6774C14.0099 33.7331 13.902 33.8132 13.7836 33.8376C13.6827 33.855 13.5712 33.8062 13.4633 33.7888C13.519 33.6914 13.5538 33.5521 13.6374 33.5068C14.1527 33.2318 14.6784 32.9811 15.1937 32.713C15.326 32.6434 15.4339 32.5285 15.5557 32.4345C15.5418 32.3997 15.5279 32.3614 15.5175 32.3266C14.7933 32.2221 14.0691 32.1142 13.3449 32.0132C12.3979 31.8774 11.4475 31.7382 10.5005 31.6198C10.2568 31.5885 10.0026 31.4736 9.78327 31.766C9.59178 32.0237 9.6649 32.2117 9.77979 32.4484C9.81809 32.5215 9.75542 32.6434 9.73801 32.7409C9.59875 32.6747 9.45948 32.6051 9.27496 32.5146C9.18792 32.6295 9.08347 32.8105 8.94073 32.9567C8.87109 33.0264 8.73531 33.0368 8.63086 33.0751C8.63783 32.9602 8.60301 32.8244 8.65872 32.7409C8.91984 32.337 9.20533 31.9471 9.50822 31.5188C8.96162 31.3865 8.46723 31.1846 8.08425 31.7417C8.04596 31.7939 7.98677 31.8531 7.9241 31.8705C7.83358 31.8983 7.72913 31.8949 7.63165 31.9053C7.64557 31.8078 7.63165 31.6894 7.68039 31.6163C7.75002 31.5188 7.8684 31.4597 8.07033 31.303C7.66646 31.2334 7.40534 31.1846 7.08852 31.1289C7.09896 30.9374 7.11289 30.7424 7.12333 30.5161C7.67343 30.5544 8.13996 30.5823 8.60301 30.6101C8.61346 30.5788 8.62738 30.544 8.63783 30.5092C8.51597 30.443 8.38019 30.3978 8.26878 30.3142C8.16433 30.2307 8.08425 30.1123 7.99721 30.0113C8.10514 29.9591 8.21655 29.9069 8.36626 29.8407C8.36975 29.8372 8.36975 29.8303 8.36975 29.8268C8.36975 29.6492 8.36626 29.4751 8.36278 29.3011C8.48464 29.4369 8.68309 29.5552 8.7179 29.7084C8.88502 30.443 9.26799 30.7982 10.0653 30.7494C10.6676 30.7146 11.2804 30.819 11.9244 30.8643V29.9486C11.4649 29.9173 11.0366 29.8964 10.6154 29.8477C10.5179 29.8338 10.4308 29.7258 10.3403 29.6632C10.4483 29.6109 10.5527 29.5169 10.6606 29.5134C11.068 29.496 11.4718 29.5065 11.9871 29.5065C11.7504 29.0399 11.5589 28.6639 11.3744 28.2844C11.3291 28.187 11.3082 28.0755 11.2769 27.9746C11.3883 27.9641 11.538 27.905 11.5972 27.9537C11.7051 28.0477 11.7608 28.2009 11.8444 28.3436C11.8931 28.3123 11.9244 28.2949 11.9558 28.274C12.0811 28.1661 12.203 28.0581 12.3283 27.9537C12.3144 28.1243 12.3457 28.3193 12.2726 28.462C12.1542 28.6988 12.1473 28.8902 12.2099 29.1583C12.3144 29.6005 12.3039 30.067 12.3144 30.5266C12.3214 30.7947 12.3945 30.913 12.6904 30.9339C15.8064 31.1533 18.9224 31.3865 22.0385 31.6163C22.8392 31.672 23.1561 32.1316 22.8566 32.8036Z" fill="inherit"/>
<path d="M28.9251 32.0759C28.9146 32.2082 28.7336 32.3892 28.5908 32.4449C27.9189 32.6991 27.2295 32.7061 26.5645 32.4415C26.3974 32.3788 26.2129 32.1386 26.199 31.9645C26.1537 31.3865 26.1816 30.8051 26.1816 30.2098C27.0903 30.7146 27.9885 30.7007 28.939 30.2411C28.939 30.8713 28.9599 31.4771 28.9251 32.0759Z" fill="inherit"/>
<path d="M26.0632 34.997C26.0458 35.1641 25.8334 35.4322 25.6872 35.4461C25.1754 35.5053 24.6531 35.4983 24.1379 35.4635C23.8942 35.4461 23.7375 35.2581 23.7479 34.9621C23.7653 34.513 23.7549 34.0604 23.7549 33.5799C24.5557 33.949 25.3077 33.9838 26.0806 33.5451C26.0806 34.0395 26.1154 34.5235 26.0632 34.997Z" fill="inherit"/>
</g>
</g>
<defs>
<filter id="filter0_b_1015_1568" x="-4" y="-4" width="48" height="48" filterUnits="userSpaceOnUse" color-interpolation-filters="sRGB">
<feFlood flood-opacity="0" result="BackgroundImageFix"/>
<feGaussianBlur in="BackgroundImageFix" stdDeviation="2"/>
<feComposite in2="SourceAlpha" operator="in" result="effect1_backgroundBlur_1015_1568"/>
<feBlend mode="normal" in="SourceGraphic" in2="effect1_backgroundBlur_1015_1568" result="shape"/>
</filter>
<filter id="filter1_b_1015_1568" x="-3.1665" y="-3.16663" width="46.3335" height="46.3334" filterUnits="userSpaceOnUse" color-interpolation-filters="sRGB">
<feFlood flood-opacity="0" result="BackgroundImageFix"/>
<feGaussianBlur in="BackgroundImageFix" stdDeviation="2"/>
<feComposite in2="SourceAlpha" operator="in" result="effect1_backgroundBlur_1015_1568"/>
<feBlend mode="normal" in="SourceGraphic" in2="effect1_backgroundBlur_1015_1568" result="shape"/>
</filter>
<clipPath id="clip0_1015_1568">
<rect width="40" height="40" fill="white"/>
</clipPath>
</defs>
</svg>
