<svg width="40" height="40" viewBox="0 0 40 40" fill="inherit" xmlns="http://www.w3.org/2000/svg">
<g id="Categories / Fragility conflict" opacity="1" clip-path="url(#clip0_1015_1684)" filter="url(#filter0_b_1015_1684)">
<g id="Ellipse 50" filter="url(#filter1_b_1015_1684)">
<circle cx="20.0002" cy="20" r="19.1667" fill="#003247"/>
</g>
<path id="Vector" d="M19.9983 0C8.95466 0 0 8.95199 0 20C0 31.048 8.95466 40 19.9983 40C31.0419 40 40 31.0446 40 20C40 8.95543 31.0453 0 19.9983 0ZM6.91044 33.4813C3.77871 30.3872 1.87559 26.6667 1.3697 22.2991C0.739912 16.8542 2.1922 11.9773 5.76443 7.799C8.88583 4.15419 12.8641 1.9618 17.6271 1.41112C24.2313 0.647049 29.803 2.81191 34.2149 7.78868C36.8029 10.7107 38.2311 14.1766 38.6716 18.052C38.7198 18.4753 38.7267 18.9021 38.768 19.3254C38.792 19.5801 38.706 19.735 38.4617 19.8279C38.1691 19.9415 37.8869 20.086 37.5428 20.2444C37.0541 19.174 36.5551 18.1242 36.1008 17.0539C35.4779 15.5911 34.9135 14.1043 34.6245 12.528C34.5969 12.38 34.4661 12.1976 34.3319 12.1253C31.6682 10.6522 28.9977 9.18947 26.3168 7.74049C26.1757 7.66477 25.9141 7.68542 25.7627 7.76458C24.5169 8.4254 23.2745 9.10342 22.0425 9.79521C21.7913 9.93977 21.5813 9.95698 21.3749 9.77801C20.573 9.09998 19.7746 9.0931 18.9727 9.77112C18.7318 9.97074 18.515 9.90191 18.2638 9.7608C16.9595 9.03459 15.6414 8.32559 14.3371 7.59594C14.11 7.46859 13.9413 7.4445 13.7004 7.57873C11.0574 9.03803 8.40403 10.4801 5.76099 11.936C5.6371 12.0048 5.49256 12.1494 5.46847 12.2802C5.0142 14.6033 4.07468 16.751 3.07322 18.8711C2.57076 19.938 2.02702 20.9809 1.47638 22.0823H8.49695C8.19066 22.6674 7.90502 23.218 7.61938 23.7722H29.8443C29.8512 23.81 29.8546 23.8479 29.8615 23.8857C28.922 24.3297 27.9824 24.7737 27.0498 25.2142C26.4923 24.5328 25.9141 24.4571 25.009 25.0181C24.9023 25.0835 24.7785 25.142 24.7096 25.2349C24.2554 25.8613 23.6772 25.8475 22.9855 25.6892C21.9186 25.4448 20.9481 25.7374 20.1291 26.4843C19.7126 26.8628 19.2962 27.2449 18.8523 27.5891C18.2466 28.0571 18.0057 28.6629 17.9885 29.4132C17.9713 30.3941 18.102 30.1428 17.2314 30.4388C14.0514 31.5161 10.8715 32.583 7.69509 33.6741C7.35094 33.7911 7.15478 33.7257 6.91044 33.4813ZM17.517 18.286C17.517 16.9265 18.6183 15.7529 19.9742 15.6565C21.3232 15.5601 22.5484 16.5273 22.7686 17.8696C22.8099 18.1242 22.834 18.3893 22.834 18.6474C22.8409 20.0482 22.8375 21.449 22.834 22.8498C22.834 22.8773 22.8237 22.9048 22.8134 22.9633H17.5411C17.5308 22.7947 17.517 22.6639 17.517 22.5297C17.5136 21.1151 17.5136 19.7006 17.517 18.286ZM13.9516 12.4901C13.2806 12.8584 12.5992 13.2163 11.9384 13.6087C11.7766 13.705 11.608 13.9115 11.5736 14.0905C11.078 16.5617 10.0318 18.8264 8.96154 21.0807C8.90992 21.184 8.74129 21.2941 8.62428 21.2975C6.75557 21.3251 4.88686 21.3354 3.02159 21.3457C2.94588 21.3457 2.86673 21.3182 2.75316 21.2941C3.09042 20.6023 3.42424 19.9449 3.73742 19.2772C4.72167 17.1778 5.64742 15.0576 6.14643 12.7758C6.17397 12.6519 6.30474 12.5176 6.42175 12.4557C8.87206 11.1031 11.3258 9.75736 13.7865 8.42196C13.8966 8.36345 14.0859 8.35312 14.1925 8.40819C15.3764 9.04147 16.5499 9.69196 17.8061 10.3803C16.4777 11.1065 15.2147 11.7983 13.9516 12.4901ZM22.5656 10.3906C22.9304 10.1876 23.2573 10.0052 23.5843 9.82275C24.3173 9.42006 25.0572 9.02771 25.7834 8.6147C25.9898 8.49768 26.1447 8.50456 26.3478 8.61814C28.774 9.95354 31.2071 11.2786 33.6333 12.6174C33.7572 12.6863 33.888 12.8412 33.919 12.9754C34.5109 15.5464 35.5915 17.9281 36.7341 20.2891C36.7685 20.3614 36.7994 20.4371 36.8511 20.5541C36.2075 20.857 35.6018 21.1495 34.9927 21.4283C34.8722 21.4799 34.7243 21.4834 34.59 21.4834C33.6677 21.4834 32.7489 21.4834 31.83 21.4627C31.6992 21.4593 31.5031 21.3629 31.4514 21.2562C30.4087 19.1086 29.3866 16.9472 28.8841 14.5999C28.743 13.9528 28.4539 13.5983 27.8861 13.3058C26.1963 12.4247 24.5341 11.4886 22.8616 10.573C22.779 10.5249 22.6998 10.4732 22.5656 10.3906ZM21.1925 28.687C21.0686 28.7042 20.9309 28.9726 20.8724 29.155C20.6487 29.8124 20.4698 30.487 20.2426 31.1444C20.1738 31.344 20.0155 31.5195 19.8709 31.6813C19.6507 31.9153 19.4029 32.115 19.0381 31.9704C18.6733 31.8258 18.632 31.5333 18.6561 31.196C18.7043 30.4973 18.7181 29.7952 18.8075 29.1034C18.842 28.8418 18.983 28.5459 19.1723 28.36C19.7023 27.8437 20.2667 27.3619 20.8414 26.8938C21.633 26.2502 22.5312 26.2915 23.4191 26.5428C23.1541 27.2277 22.9063 27.9091 22.6138 28.5734C22.5518 28.7145 22.3419 28.8005 22.1836 28.8832C22.0253 28.9623 21.8498 29.0071 21.6811 29.0656C21.6984 29.0311 21.7121 29.0002 21.7259 28.9692C21.5469 28.8659 21.3577 28.6698 21.1925 28.687ZM13.3081 37.5804C11.4015 36.8714 9.66704 35.8561 8.0943 34.5689C8.053 34.5345 8.02547 34.4898 7.92222 34.3727C11.2467 33.2507 14.5229 32.1425 17.8577 31.017C17.8577 31.1788 17.8611 31.2648 17.8577 31.3509C17.8543 31.9394 18.102 32.3869 18.632 32.6519C19.162 32.9203 19.6782 32.8515 20.1394 32.497C20.8036 31.991 21.1546 31.2717 21.3645 30.4973C21.4712 30.105 21.6399 29.8468 22.0322 29.7849C22.9545 29.6403 23.4019 29.0965 23.6221 28.1982C23.8596 27.2208 24.4618 26.4154 25.274 25.8028C25.4805 25.6445 25.7317 25.5412 25.9589 25.4139C25.7558 26.5875 25.952 27.1072 26.8846 27.7508C28.1958 28.6594 29.6791 29.0656 31.2484 29.1688C31.9573 29.2136 32.6731 29.1688 33.3855 29.1791C33.4957 29.1826 33.6918 29.2342 33.6987 29.279C33.7125 29.3994 33.6781 29.5715 33.5955 29.6438C33.3821 29.8262 33.1171 29.9535 32.8934 30.1256C32.742 30.2426 32.5527 30.3803 32.508 30.5455C32.4116 30.9035 32.1982 31.0859 31.8575 31.1341C31.5443 31.1754 31.3723 31.3268 31.2002 31.6021C31.0763 31.8018 30.7494 31.9257 30.4913 31.9738C30.1643 32.0324 29.9991 32.1253 29.9097 32.4798C29.8546 32.7173 29.6137 32.9857 29.39 33.089C28.5021 33.4951 27.5901 33.4848 26.6781 33.1131C26.4407 33.0167 26.1654 33.0029 25.8969 33.0098C25.2809 32.3111 24.5616 32.1287 23.6944 32.583C23.6084 32.6278 23.481 32.6175 23.3778 32.6037C22.9407 32.5417 22.5346 32.6106 22.1595 32.8549C22.0735 32.91 21.9565 32.9203 21.8532 32.9444C21.8154 32.9513 21.7706 32.9444 21.7293 32.941C20.8931 32.8584 20.5351 33.5811 19.9639 33.9597C19.341 34.3727 19.0725 34.8752 19.1895 35.8355C18.5529 36.042 17.9059 36.2519 17.2589 36.4653C16.1266 36.8336 14.9944 37.2053 13.8587 37.5598C13.6867 37.6149 13.4698 37.639 13.3081 37.5804ZM26.8915 33.946C26.5818 34.803 26.2067 35.4294 25.4151 35.6875C25.2775 35.7322 25.1157 35.7116 24.9746 35.746C24.775 35.7907 24.5857 35.8665 24.3896 35.9215C24.097 36.0007 23.8045 36.0764 23.5086 36.1452C23.3365 36.1865 23.13 36.1624 22.9923 36.2519C22.6861 36.4516 22.3935 36.5514 22.0253 36.4653C21.8911 36.4309 21.7087 36.5032 21.5779 36.5789C21.2062 36.7992 20.838 36.7923 20.5764 36.4619C20.3218 36.1418 20.0946 35.7701 19.9707 35.3846C19.8572 35.0336 20.0946 34.7789 20.4422 34.624C20.6177 34.5483 20.7933 34.3934 20.8931 34.2247C21.1202 33.8427 21.4437 33.6982 21.8876 33.7635C22.0735 33.7876 22.3178 33.7326 22.4658 33.619C22.779 33.3781 23.0646 33.2955 23.4466 33.4607C23.5843 33.5192 23.8286 33.4744 23.9559 33.385C24.4859 33.0029 24.8232 33.0305 25.2121 33.5398C25.2947 33.6465 25.3669 33.767 25.4392 33.8806C25.7008 34.2798 25.8453 34.2764 26.2273 34.0045C26.365 33.9047 26.6162 33.9632 26.8915 33.946ZM14.9875 38.0107C15.9236 37.7112 16.8562 37.4118 17.7889 37.1158C18.2844 36.9575 18.7869 36.8129 19.279 36.6409C19.5027 36.5617 19.6473 36.5789 19.809 36.7751C20.3665 37.4531 21.0376 37.694 21.8876 37.2982C22.0838 37.2053 22.3832 37.3292 22.569 37.2328C23.2883 36.8542 24.1831 37.0883 24.8473 36.5514C24.8851 36.5204 24.9505 36.5101 25.0021 36.5066C26.2996 36.4756 27.0016 35.6668 27.4662 34.5827C27.5901 34.2901 27.7278 34.2075 28.0478 34.1628C28.6914 34.0768 29.39 33.9907 29.9269 33.6741C30.5532 33.3092 30.9937 32.6622 31.6717 32.2974C31.9298 32.1597 32.1432 31.8981 32.4495 31.7639C32.6869 31.6606 32.9381 31.461 33.0517 31.2373C33.2135 30.9207 33.4475 30.7486 33.7297 30.5765C34.473 30.1153 34.6692 29.5508 34.3801 28.7111C35.2749 28.3428 36.1765 27.9711 37.1092 27.5891C33.9534 35.4569 24.3689 40.7916 14.9875 38.0107ZM37.7596 26.2124C37.7183 26.3844 37.5222 26.5806 37.3501 26.6529C36.0148 27.2242 34.6795 27.8024 33.3133 28.2946C32.8452 28.4633 32.2877 28.422 31.7749 28.4047C30.2332 28.36 28.7602 28.0296 27.4593 27.1554C27.1462 26.9454 26.8915 26.646 26.5267 26.3087C30.684 24.3435 34.7036 22.4436 38.8161 20.4991C38.768 21.1633 38.7852 21.7415 38.6716 22.2956C38.4066 23.6104 38.09 24.9114 37.7596 26.2124Z" fill="inherit"/>
</g>
<defs>
<filter id="filter0_b_1015_1684" x="-4" y="-4" width="48" height="48" filterUnits="userSpaceOnUse" color-interpolation-filters="sRGB">
<feFlood flood-opacity="0" result="BackgroundImageFix"/>
<feGaussianBlur in="BackgroundImageFix" stdDeviation="2"/>
<feComposite in2="SourceAlpha" operator="in" result="effect1_backgroundBlur_1015_1684"/>
<feBlend mode="normal" in="SourceGraphic" in2="effect1_backgroundBlur_1015_1684" result="shape"/>
</filter>
<filter id="filter1_b_1015_1684" x="-3.1665" y="-3.16663" width="46.3335" height="46.3334" filterUnits="userSpaceOnUse" color-interpolation-filters="sRGB">
<feFlood flood-opacity="0" result="BackgroundImageFix"/>
<feGaussianBlur in="BackgroundImageFix" stdDeviation="2"/>
<feComposite in2="SourceAlpha" operator="in" result="effect1_backgroundBlur_1015_1684"/>
<feBlend mode="normal" in="SourceGraphic" in2="effect1_backgroundBlur_1015_1684" result="shape"/>
</filter>
<clipPath id="clip0_1015_1684">
<rect width="40" height="40" fill="white"/>
</clipPath>
</defs>
</svg>
