<svg width="40" height="40" viewBox="0 0 40 40" fill="inherit" xmlns="http://www.w3.org/2000/svg">
<g id="Categories / Trasnport" opacity="1" clip-path="url(#clip0_1015_994)" filter="url(#filter0_b_1015_994)">
<g id="Ellipse 50" filter="url(#filter1_b_1015_994)">
<circle cx="20.0002" cy="20" r="19.1667" fill="#003247"/>
</g>
<g id="Vector">
<path d="M33.1314 33.671V33.678L33.1419 33.671H33.1314ZM31.906 33.6536C32.3133 33.6606 32.7241 33.6675 33.1314 33.671C32.7241 33.6641 32.3133 33.6606 31.906 33.6536ZM13.9112 33.6362C13.6989 33.6397 13.4865 33.6397 13.2742 33.6397H13.9112C14.0122 33.6397 14.1131 33.6327 14.2141 33.6258C14.1131 33.6327 14.0122 33.6362 13.9112 33.6362Z" fill="black"/>
<path d="M20 0C8.97128 0 0 8.97128 0 20C0 31.0287 8.97128 40 20 40C31.0287 40 40 31.0287 40 20C40 8.97128 31.0287 0 20 0ZM1.59095 24.6545C0.692776 20.9399 0.852916 17.2811 2.10618 13.6675C2.20366 13.3925 2.33943 13.3194 2.61793 13.3194C4.99217 13.3299 7.36641 13.3333 9.74413 13.3194C10.1445 13.3194 10.2802 13.4726 10.2768 13.8625C10.2663 15.6414 10.2733 17.4204 10.2733 19.1958V24.4491C10.2733 24.9748 10.1967 25.0513 9.6745 25.0513C7.15753 25.0513 4.64404 25.0444 2.13055 25.0583C1.81723 25.0583 1.67102 24.9887 1.59095 24.6545ZM33.8903 32.9295H30.0366C29.946 33.6397 29.946 33.6362 30.611 33.6397C31.0426 33.6432 31.4743 33.6501 31.906 33.6536C32.3133 33.6606 32.7241 33.6641 33.1314 33.6675L33.1836 33.6292C33.1836 33.6292 33.1558 33.6571 33.1419 33.671L33.1314 33.6815C32.0139 34.8094 30.7363 35.718 29.3577 36.5048C22.2176 40.5814 13.1941 39.5753 7.1819 34.0226C7.08094 33.9321 6.95909 33.8625 6.84769 33.7824C6.86858 33.7337 6.88947 33.6884 6.91036 33.6397H7.75283C8.41427 33.6397 8.42124 33.6292 8.28895 32.8912C7.65187 32.8912 7.00435 32.8982 6.35683 32.8842C6.2141 32.8842 6.02959 32.8529 5.94256 32.7624C4.9295 31.6728 4.06614 30.4717 3.32463 29.0931C3.32463 29.0931 28.564 29.0757 28.5674 29.0653H36.6754C35.8782 30.5065 34.9765 31.7911 33.8903 32.9295ZM14.4682 16.6301C14.4648 16.2994 14.5727 16.1984 14.8929 16.2019C15.8364 16.2158 16.7798 16.2089 17.7232 16.2054C17.9495 16.2019 18.1271 16.2263 18.1688 16.5083C18.3951 17.9704 18.6319 19.4291 18.8721 20.9469H14.5065C14.4961 20.8251 14.4752 20.7032 14.4752 20.5849C14.4752 19.2689 14.4856 17.9495 14.4682 16.6301ZM14.6214 24.9191C15.5648 24.9191 16.3098 25.6606 16.3168 26.604C16.3203 27.5439 15.5718 28.3064 14.6353 28.3098C13.6919 28.3133 12.8877 27.5231 12.9017 26.6005C12.9121 25.6884 13.6989 24.9191 14.6214 24.9191ZM29.946 17.3577V18.4508H28.8529V17.3577H29.946ZM28.8529 16.8285V10.9347H29.946V16.8285H28.8529ZM36.644 28.3377C34.5587 28.3203 32.4735 28.3272 30.3882 28.3272C30.2489 28.3272 30.1375 28.3272 30.0505 28.3377V19.8747H31.3594C32.1915 19.8747 33.027 19.8921 33.859 19.8747C35.1854 19.8364 35.8399 18.6249 35.1575 17.49C33.6536 14.9939 32.1497 12.4978 30.6353 10.0087C29.9495 8.88077 28.6336 8.88773 27.9478 10.0157C26.4404 12.4943 24.9399 14.9765 23.443 17.4621C22.7224 18.6632 23.4082 19.8642 24.8181 19.8747C26.0574 19.8851 27.2933 19.8816 28.5326 19.8747V28.3412C28.4178 28.3412 28.2785 28.3551 28.0453 28.3551L16.4526 28.3272C17.027 27.5648 17.2498 26.7676 16.9748 25.8172H18.7711C19.9304 25.8207 20.3621 25.2707 20.1706 24.1218C19.7285 21.4552 19.3107 18.7815 18.8825 16.1079C18.7955 15.5474 18.7154 14.9835 18.6144 14.423C18.503 13.7998 18.0923 13.4621 17.4517 13.4587C15.8677 13.4552 14.2837 13.4552 12.6963 13.4587C11.9721 13.4621 11.5265 13.8938 11.5231 14.6284C11.5161 17.9634 11.5196 21.2985 11.5196 24.6336C11.5196 25.1697 11.805 25.5144 12.2785 25.7685C11.9826 26.6771 12.1601 27.5091 12.7798 28.3064C12.6092 28.3168 12.4909 28.3272 12.376 28.3272C9.36118 28.3272 6.34291 28.3238 3.32811 28.3377C3.01828 28.3377 2.84769 28.2541 2.73629 27.9617C2.47171 27.2654 2.18277 26.5796 1.87293 25.8172H9.75457C10.6423 25.8172 11.0426 25.4099 11.0426 24.5117C11.0461 20.9539 11.0461 17.396 11.0426 13.8346C11.0426 12.9539 10.6493 12.557 9.77894 12.557C7.39077 12.5535 4.99913 12.557 2.56571 12.557C2.60052 12.4317 2.61793 12.3272 2.6597 12.2367C5.43429 6.40905 9.93908 2.66667 16.275 1.4134C22.7711 0.128808 28.5083 1.88686 33.2881 6.47868C36.4595 9.52829 38.2837 13.309 38.8303 17.6849C39.2759 21.2602 38.7224 24.6823 37.2393 27.9652C37.107 28.2507 36.9504 28.3377 36.644 28.3377Z" fill="inherit"/>
<path d="M33.1314 33.6675C32.7241 33.6675 32.3133 33.6606 31.906 33.6536C32.3133 33.6606 32.7241 33.6641 33.1314 33.6675Z" fill="inherit"/>
<path d="M33.1419 33.671L33.1314 33.6815V33.671H33.1419Z" fill="inherit"/>
<path d="M14.517 32.9225V33.6084C14.416 33.6118 14.3151 33.6188 14.2141 33.6258C14.1131 33.6327 14.0122 33.6362 13.9112 33.6362C13.6989 33.6397 13.4865 33.6397 13.2742 33.6397H11.993C11.3316 33.6397 11.3281 33.6362 11.4465 32.9225H14.517Z" fill="inherit"/>
<path d="M14.2141 33.6258C14.1131 33.6327 14.0122 33.6397 13.9112 33.6397H13.2742C13.4865 33.6397 13.6989 33.6397 13.9112 33.6362C14.0122 33.6362 14.1131 33.6327 14.2141 33.6258Z" fill="inherit"/>
<path d="M26.3394 33.6397H23.8294V32.933H26.9034C26.973 33.4041 26.785 33.6397 26.3394 33.6397Z" fill="inherit"/>
<path d="M20.6997 32.9191H17.6258V33.6153H20.6997V32.9191Z" fill="inherit"/>
</g>
</g>
<defs>
<filter id="filter0_b_1015_994" x="-4" y="-4" width="48" height="48" filterUnits="userSpaceOnUse" color-interpolation-filters="sRGB">
<feFlood flood-opacity="0" result="BackgroundImageFix"/>
<feGaussianBlur in="BackgroundImageFix" stdDeviation="2"/>
<feComposite in2="SourceAlpha" operator="in" result="effect1_backgroundBlur_1015_994"/>
<feBlend mode="normal" in="SourceGraphic" in2="effect1_backgroundBlur_1015_994" result="shape"/>
</filter>
<filter id="filter1_b_1015_994" x="-3.1665" y="-3.16663" width="46.3335" height="46.3334" filterUnits="userSpaceOnUse" color-interpolation-filters="sRGB">
<feFlood flood-opacity="0" result="BackgroundImageFix"/>
<feGaussianBlur in="BackgroundImageFix" stdDeviation="2"/>
<feComposite in2="SourceAlpha" operator="in" result="effect1_backgroundBlur_1015_994"/>
<feBlend mode="normal" in="SourceGraphic" in2="effect1_backgroundBlur_1015_994" result="shape"/>
</filter>
<clipPath id="clip0_1015_994">
<rect width="40" height="40" fill="white"/>
</clipPath>
</defs>
</svg>
