<svg width="40" height="40" viewBox="0 0 40 40" fill="inherit" xmlns="http://www.w3.org/2000/svg">
<g id="Categories / water" opacity="1" clip-path="url(#clip0_1015_1592)" filter="url(#filter0_b_1015_1592)">
<g id="Ellipse 50" filter="url(#filter1_b_1015_1592)">
<circle cx="20.0002" cy="20" r="19.1667" fill="#003247"/>
</g>
<path id="Vector" d="M20 0C8.97128 0 0 8.97128 0 20C0 31.0287 8.97128 40 20 40C31.0287 40 40 31.0252 40 20C40 8.97476 31.0287 0 20 0ZM31.5161 5.16971C31.8016 5.38555 32.0278 5.5631 32.3377 5.80331H31.5161V5.16971ZM28.8599 3.44996C29.4865 3.82942 30.0714 4.17755 30.6527 4.5396C30.705 4.57093 30.7363 4.67885 30.7398 4.75196C30.7467 5.31941 30.7433 5.88686 30.7433 6.50305H28.8599V3.44996ZM25.1384 2.0644C26.0331 2.36728 26.9208 2.68407 27.805 3.01131C27.9095 3.04961 28.0557 3.1819 28.0592 3.27589C28.0801 4.10444 28.0696 4.93299 28.0696 5.81375C27.6693 5.81375 27.3107 5.81027 26.9521 5.81375C24.745 5.83116 23.1018 6.79896 22.0226 8.72759C21.9634 8.83203 21.8346 8.9678 21.7406 8.97128C20.3934 8.9852 19.0496 8.98172 17.6641 8.98172C17.9426 7.82593 18.423 6.81984 19.0775 5.90078C20.4804 3.93734 22.3464 2.63882 24.6963 2.06789C24.839 2.03307 25.0061 2.01915 25.1384 2.0644ZM22.4021 9.74064C22.7433 9.73716 23.0218 9.80679 23.0635 10.2002C23.0983 10.517 22.8442 10.7293 22.4125 10.7293C20.8181 10.7363 19.2202 10.7328 17.6258 10.7328C17.389 10.7328 17.1523 10.7467 16.9191 10.7293C16.6023 10.705 16.3829 10.5448 16.4073 10.2002C16.4282 9.88338 16.644 9.75457 16.9504 9.75457C17.8799 9.75805 18.8094 9.75457 19.7389 9.75457V9.74413C20.6266 9.74413 21.5144 9.75109 22.4021 9.74064ZM18.4648 38.3081C18.4648 38.3742 18.4439 38.4404 18.4195 38.5936C17.6849 38.4856 16.9574 38.4056 16.2437 38.2663C15.5753 38.134 14.9278 37.9251 14.2628 37.7789C13.9147 37.7023 13.866 37.483 13.8312 37.1836C13.7023 36.0278 13.5701 34.8721 13.3925 33.7232C13.3368 33.3612 13.201 32.9817 12.9922 32.6823C12.7763 32.369 12.47 32.0104 12.1288 31.906C10.6249 31.4465 9.49695 30.5518 8.53264 29.3194C7.349 27.812 6.03307 26.4125 4.78677 24.9574C4.67189 24.8251 4.58834 24.6197 4.58834 24.4456C4.57441 22.1793 4.57441 19.9164 4.58138 17.6501C4.58138 16.9887 5.12794 16.5744 5.68146 16.8042C6.01218 16.9434 6.15144 17.2045 6.14795 17.5666C6.14099 19.3316 6.1584 21.0966 6.13751 22.8616C6.13055 23.3455 6.23151 23.7319 6.56223 24.1114C7.82594 25.5666 9.06179 27.0531 10.3081 28.5292C10.4822 28.7346 10.6806 28.9156 10.9347 28.7032C11.1958 28.4874 11.0496 28.2611 10.8755 28.0557C9.62576 26.5831 8.38294 25.107 7.13316 23.631C6.78503 23.2202 6.80592 22.5239 7.17842 22.2141C7.55788 21.9043 8.33072 21.96 8.65796 22.3359C9.69539 23.5335 10.7189 24.738 11.7633 25.9286C11.906 26.0888 12.1358 26.2141 12.3446 26.2663C14.0157 26.6736 15.631 27.1923 17.0235 28.2472C17.953 28.9539 18.4752 29.8555 18.4682 31.0531C18.4543 33.4691 18.4648 35.8886 18.4648 38.3081ZM6.88251 17.6084C6.87902 17.3786 6.87206 17.1105 6.75718 16.926C6.52045 16.5396 6.5483 16.1323 6.55875 15.7215C6.56919 15.2272 6.89295 14.9208 7.37685 14.9243C7.82594 14.9243 8.12881 15.2341 8.13577 15.7319C8.14621 16.4386 8.13925 17.1453 8.13925 17.852V21.2359C7.70757 21.3055 7.32811 21.3647 6.88947 21.4343V20.8564C6.88947 19.7737 6.89643 18.691 6.88251 17.6084ZM8.8738 16.6719C9.50392 16.6963 9.79634 16.9295 9.79983 17.4447C9.81375 19.0809 9.80331 20.7171 9.79983 22.3533C9.79983 22.3742 9.77546 22.3951 9.74064 22.4473C9.47955 22.1549 9.22193 21.8729 8.97476 21.577C8.91906 21.5109 8.87728 21.4064 8.87728 21.3159C8.87032 19.7807 8.8738 18.2419 8.8738 16.6719ZM10.5379 18.7572V18.3116C11.0287 18.2663 11.3873 18.4613 11.3908 18.8477C11.4151 20.6475 11.4012 22.4473 11.4012 24.3238C11.3003 24.2298 11.2724 24.2019 11.2376 24.1741C10.6632 23.6936 10.4856 23.0914 10.5239 22.3394C10.5831 21.1488 10.5379 19.9513 10.5379 18.7572ZM25.1558 35.8016C25.0548 36.4282 25.0688 37.0722 25.0061 37.7093C24.9956 37.8242 24.8877 38.0052 24.7868 38.0296C23.4047 38.3951 22.0017 38.6284 20.4943 38.6075V38.054C20.4978 35.6762 20.5222 33.302 20.4943 30.9243C20.4839 29.9391 20.8773 29.1767 21.577 28.55C22.8303 27.4221 24.3621 26.8372 25.9669 26.4648C26.7015 26.2942 27.2167 25.9565 27.6797 25.3681C28.5013 24.3238 29.4099 23.342 30.2872 22.3394C30.611 21.9704 31.3768 21.9252 31.7285 22.2419C32.0731 22.5518 32.101 23.2202 31.7842 23.5927C30.5657 25.0374 29.3438 26.4787 28.1253 27.9199C28.0696 27.9861 28.0209 28.0522 27.9687 28.1149C27.7842 28.3238 27.7354 28.5466 27.9756 28.7311C28.188 28.8947 28.3899 28.8146 28.557 28.6197C29.9112 27.0148 31.2724 25.4204 32.6057 23.8016C32.7589 23.6136 32.7903 23.2829 32.7903 23.0183C32.7972 21.215 32.7763 19.4082 32.7728 17.6014C32.7728 17.1001 33.0757 16.7798 33.5144 16.7763C34.0017 16.7763 34.3116 17.0827 34.3116 17.5944C34.3151 19.8886 34.3185 22.1828 34.3081 24.4735C34.3046 24.6231 34.2385 24.8042 34.141 24.9156C32.4352 26.893 30.7224 28.8668 29.0026 30.8338C28.8912 30.9626 28.7241 31.0601 28.564 31.1262C28.0174 31.3664 27.4708 31.6066 26.9069 31.8016C26.3046 32.0104 25.8869 32.4143 25.7337 33.0026C25.4935 33.9217 25.3055 34.8616 25.1558 35.8016ZM27.5126 24.0557C27.5091 22.4056 27.5091 20.752 27.5126 19.0983C27.5126 18.5483 27.7702 18.3151 28.3899 18.3046C28.3899 19.9443 28.3969 21.5527 28.3829 23.161C28.3795 23.2933 28.2715 23.436 28.181 23.5474C27.993 23.7876 27.7876 24.0104 27.5474 24.2855C27.53 24.1741 27.5126 24.1149 27.5126 24.0557ZM30.0435 20.6754C30.0957 21.4413 29.7093 21.8729 29.1662 22.3742V21.7441C29.1662 20.3133 29.1662 18.886 29.1697 17.4587C29.1697 16.9365 29.3925 16.7276 29.9843 16.7102C29.9983 16.8668 30.0191 17.0235 30.0191 17.1836C30.0226 18.3464 29.9634 19.5161 30.0435 20.6754ZM30.8233 15.6379C30.8303 15.1923 31.1332 14.9417 31.5474 14.9417C32 14.9452 32.3377 15.2306 32.3168 15.6867C32.2959 16.101 32.188 16.5152 32.1149 16.9295C32.0766 17.1628 32.0035 17.3925 32 17.6223C31.9896 18.7189 32 19.8155 31.993 20.9156V21.3925C31.6275 21.3403 31.3246 21.3159 31.0322 21.2463C30.9417 21.2219 30.8198 21.0688 30.8198 20.9713C30.8094 19.1958 30.8059 17.4169 30.8233 15.6379ZM33.7929 32.8042C31.6658 35.0601 29.1001 36.644 26.1619 37.6327C26.0679 37.6641 25.9739 37.6849 25.8799 37.7024C25.859 37.7093 25.8312 37.6849 25.7824 37.6606C25.8416 36.2576 25.9112 34.8477 26.3394 33.4865C26.4961 32.9852 26.7711 32.5953 27.3177 32.4491C28.7346 32.0696 29.7929 31.2202 30.7084 30.0679C32.0035 28.4386 33.4343 26.9173 34.785 25.3299C34.9452 25.1384 35.0461 24.8355 35.0496 24.5849C35.067 22.3046 35.0601 20.0244 35.0601 17.7441C35.0601 16.5222 34.3777 15.913 33.0862 16.0487C33.0862 15.8886 33.0931 15.7493 33.0862 15.6136C33.0548 14.8059 32.4247 14.2106 31.5857 14.1793C30.785 14.1514 30.1271 14.7224 30.0714 15.53C30.054 15.8016 29.9843 15.899 29.7023 15.9443C28.8668 16.0766 28.4769 16.55 28.3795 17.4726C28.2402 17.5039 28.094 17.5352 27.9513 17.5735C27.1506 17.7789 26.7502 18.2802 26.7502 19.0983C26.7467 21.0305 26.7398 22.9626 26.7572 24.8947C26.7607 25.3403 26.5936 25.5213 26.1619 25.6258C24.4212 26.0366 22.7433 26.6179 21.3299 27.7598C20.2924 28.5988 19.7076 29.6432 19.7319 31.0322C19.7702 33.396 19.7319 35.7598 19.7319 38.1236V38.6005H19.1749V38.0923C19.1749 35.7842 19.1366 33.4761 19.1889 31.1715C19.2237 29.6327 18.5831 28.5013 17.3995 27.6136C16.0035 26.5692 14.3986 26.0052 12.7241 25.6188C12.3098 25.5213 12.1427 25.3368 12.1462 24.9121C12.1601 23.1053 12.1184 21.2985 12.1636 19.4917C12.1984 18.1131 11.7041 17.6919 10.5483 17.4691C10.4926 16.4595 9.88686 15.9791 8.9295 15.8921C8.63359 14.6179 8.17755 14.141 7.30722 14.1793C6.37076 14.2245 5.92167 14.7607 5.78242 16C5.54221 16.0209 5.29156 16.0174 5.05483 16.0696C4.27502 16.2437 3.87119 16.7554 3.87119 17.5492C3.86771 19.9269 3.86423 22.3046 3.87815 24.6789C3.87815 24.8912 3.97563 25.1453 4.11488 25.309C5.85901 27.342 7.62054 29.3647 9.38555 31.3838C9.53525 31.5509 9.74413 31.6867 9.953 31.7807C10.51 32.0279 11.0705 32.275 11.6519 32.463C12.1427 32.6266 12.4421 32.9574 12.5431 33.4204C12.745 34.3812 12.9017 35.3525 13.0548 36.3238C13.107 36.6475 13.1001 36.9782 13.121 37.3229C5.37163 34.597 -1.11053 25.5909 1.66406 15.2829C4.51871 4.66493 15.0809 0.0974761 23.2028 1.70583C22.7885 1.90775 22.3812 2.08529 21.9983 2.30113C19.4639 3.71802 17.7789 5.81723 16.9782 8.61271C16.9017 8.87728 16.7868 9.01654 16.5083 9.09312C15.9443 9.24978 15.5892 9.82768 15.6623 10.3742C15.7459 10.9904 16.2298 11.4256 16.8564 11.443C17.0792 11.4465 17.302 11.443 17.5248 11.443H18.2315C18.1271 11.6101 18.0609 11.7354 17.9774 11.8503C16.832 13.4587 15.725 15.0879 14.8721 16.8773C14.7189 17.201 14.5831 17.5387 14.4473 17.8729C13.215 20.8216 15.3908 24.2785 18.6876 24.7659C21.497 25.1802 23.9234 23.4604 24.6928 21.1906C25.121 19.9234 25.0026 18.7119 24.4769 17.5039C23.6136 15.53 22.4299 13.7511 21.1941 12.0035C21.0827 11.8468 20.9713 11.6902 20.7972 11.443C21.215 11.443 21.5527 11.4465 21.8869 11.443C22.1654 11.4395 22.4439 11.4534 22.7224 11.4256C23.2759 11.3734 23.6867 10.973 23.7876 10.416C23.8747 9.92167 23.6205 9.40644 23.1645 9.15927C23.0426 9.09312 22.9138 9.04439 22.785 8.98869C23.7389 7.08442 25.7929 6.30461 28.0766 6.61445C28.094 6.81288 28.1149 7.0148 28.1358 7.23412H31.4465C31.4639 7.02176 31.4813 6.83029 31.5022 6.59008C32.0174 6.59008 32.5292 6.57963 33.0374 6.60052C33.1453 6.604 33.2637 6.69452 33.3473 6.77807C36.4386 9.79286 38.329 13.4343 38.8407 17.7267C39.53 23.53 37.7963 28.5605 33.7929 32.8042Z" fill="inherit"/>
</g>
<defs>
<filter id="filter0_b_1015_1592" x="-4" y="-4" width="48" height="48" filterUnits="userSpaceOnUse" color-interpolation-filters="sRGB">
<feFlood flood-opacity="0" result="BackgroundImageFix"/>
<feGaussianBlur in="BackgroundImageFix" stdDeviation="2"/>
<feComposite in2="SourceAlpha" operator="in" result="effect1_backgroundBlur_1015_1592"/>
<feBlend mode="normal" in="SourceGraphic" in2="effect1_backgroundBlur_1015_1592" result="shape"/>
</filter>
<filter id="filter1_b_1015_1592" x="-3.1665" y="-3.16663" width="46.3335" height="46.3334" filterUnits="userSpaceOnUse" color-interpolation-filters="sRGB">
<feFlood flood-opacity="0" result="BackgroundImageFix"/>
<feGaussianBlur in="BackgroundImageFix" stdDeviation="2"/>
<feComposite in2="SourceAlpha" operator="in" result="effect1_backgroundBlur_1015_1592"/>
<feBlend mode="normal" in="SourceGraphic" in2="effect1_backgroundBlur_1015_1592" result="shape"/>
</filter>
<clipPath id="clip0_1015_1592">
<rect width="40" height="40" fill="white"/>
</clipPath>
</defs>
</svg>
