<svg width="40" height="40" viewBox="0 0 40 40" fill="none" xmlns="http://www.w3.org/2000/svg">
<g id="Categories / Agriculture" opacity="0.5" clip-path="url(#clip0_1015_861)" filter="url(#filter0_b_1015_861)">
<g id="Ellipse 50" filter="url(#filter1_b_1015_861)">
<circle cx="20.0002" cy="20" r="19.1667" fill="#003247"/>
</g>
<g id="Vector">
<path d="M20 0C8.97128 0 0 8.97128 0 20C0 31.0287 8.97128 40 20 40C31.0287 40 40 31.0287 40 20C40 8.97128 31.0287 0 20 0ZM14.1758 37.1245C13.9983 37.2115 13.7163 37.1906 13.5144 37.121C10.2628 35.9652 7.52306 34.0679 5.27763 31.4465C5.0409 31.168 4.90862 30.8895 4.94343 30.5135C4.97476 30.1584 4.95039 29.7963 4.95039 29.3229C5.85901 29.6641 5.99826 29.0131 6.2141 28.4595C6.40209 27.9826 5.83812 27.9513 5.76153 27.6832C6.604 26.7955 7.43951 25.9112 8.30287 25.0061C8.68581 25.3229 8.90862 25.7302 9.54569 25.4447C10.1305 25.1836 10.1619 24.8494 10.0923 24.3377H13.866C13.8451 24.8216 13.8381 25.201 14.4543 25.4447C15.0705 25.6919 15.3037 25.3821 15.6484 24.9887C16.5117 25.9182 17.3403 26.8129 18.2037 27.7389C18.0296 27.9721 17.5596 28.1601 17.8869 28.8216C18.1723 29.3925 18.51 29.4099 19.0148 29.3612V33.0479C18.5901 33.1036 18.141 32.9469 17.8869 33.6084C17.6466 34.2315 17.9182 34.4578 18.2559 34.7398C17.389 35.6379 16.5396 36.5222 15.6379 37.4621C15.262 36.6963 14.7537 36.832 14.1758 37.1245ZM8.20191 22.4299C8.19495 22.3812 8.41776 22.2559 8.53612 22.2559C9.31245 22.2385 10.0923 22.2454 10.8721 22.2454C13.2463 22.2454 15.624 22.2385 18.0017 22.2489C18.9626 22.2559 19.725 22.6701 20.195 23.5196C20.3551 23.8085 20.3934 24.1671 20.5048 24.557H30.9173V28.7276C30.2454 28.7276 29.5805 28.7485 28.9191 28.7206C28.5187 28.6997 28.3586 28.8251 28.4038 29.2324C28.4282 29.4621 28.4352 29.6849 28.1218 29.7929C27.8747 29.8799 27.7006 29.8869 27.544 29.671C27.4395 29.5213 27.342 29.3716 27.2063 29.1732C26.4439 29.9913 25.7859 30.6945 25.1105 31.4186C25.2184 31.5405 25.3821 31.7215 25.5875 31.9443H19.8225V28.6266C19.4917 28.6266 19.2167 28.6336 18.9452 28.6232C18.8442 28.6197 18.7467 28.5674 18.6493 28.5361C18.698 28.4317 18.7224 28.3029 18.7955 28.2263C18.98 28.0383 19.1889 27.8747 19.342 27.7424C18.0923 26.4439 16.9017 25.208 15.5857 23.8364C15.3699 24.1218 15.2063 24.3621 15.0148 24.5814C14.9556 24.6475 14.8233 24.6823 14.7328 24.6719C14.691 24.6684 14.6667 24.5152 14.6353 24.4282C14.6319 24.4178 14.6353 24.4003 14.6353 24.3864C14.6098 23.8248 14.3209 23.5439 13.7685 23.5439C12.4317 23.5439 11.0983 23.5544 9.76501 23.537C9.42733 23.5335 9.32637 23.6414 9.3403 23.9652C9.35422 24.2054 9.28808 24.4456 9.26023 24.6858C9.05135 24.5431 8.85291 24.3864 8.63708 24.2646C7.83638 23.8085 8.27154 23.0566 8.20191 22.4299ZM10.9452 21.4621V17.7998C10.9452 16.6231 11.4883 15.9339 12.6371 15.6728C12.9156 15.6101 13.2045 15.5962 13.5109 15.5579V21.4621H10.9452ZM14.3255 21.4691V15.5753C15.0044 15.5753 15.6797 15.5683 16.3551 15.5753C16.7798 15.5822 17.309 15.4639 17.6014 15.6693C17.8764 15.8607 17.9077 16.4038 18.0366 16.7972C18.5622 18.4021 19.0844 20.007 19.6066 21.6153C19.6275 21.678 19.6379 21.7476 19.6728 21.9008C18.9312 21.5004 18.1932 21.4552 17.4343 21.4656C16.4108 21.483 15.3873 21.4691 14.3255 21.4691ZM23.7319 23.7911C24.0139 23.4569 24.2437 23.1854 24.5431 22.8268V23.7911H23.7319ZM25.3299 21.1906C25.3299 21.1105 25.4621 21.0339 25.5387 20.9574C25.5527 20.9434 25.5909 20.9539 25.6188 20.9504C26.1712 20.9063 26.4473 21.1581 26.4473 21.7058V23.7737H25.3194C25.3194 22.8964 25.3124 22.0435 25.3299 21.1906ZM27.2411 22.3116C27.2689 22.148 27.6379 22.04 27.9373 21.8555V23.7946H27.2132C27.2132 23.2933 27.1575 22.792 27.2411 22.3116ZM25.5701 37.3507C22.4961 38.2802 19.443 38.4195 16.3203 37.8486C17.3264 36.8007 18.2976 35.7911 19.3211 34.7258C19.1401 34.5622 18.9208 34.3777 18.7154 34.1758C18.6562 34.1201 18.5901 33.9809 18.6179 33.9391C18.6667 33.866 18.7815 33.8068 18.8755 33.8033C19.161 33.7859 19.45 33.7963 19.7737 33.7963V32.7485H24.5083V35.4012C24.846 35.6867 25.3333 35.2446 25.5805 35.812C25.8381 36.4108 25.1976 36.4247 25.1036 36.8285C25.2219 36.9608 25.3716 37.1314 25.5701 37.3507ZM32.9365 33.2115C32.7972 33.3368 32.651 33.4552 32.4769 33.6014C32.0592 32.2959 31.2376 31.5509 29.8834 31.5544C28.7937 31.5544 27.9756 32.0766 27.5544 33.0792C27.0322 34.3325 27.436 35.3734 28.5292 36.2541C27.8399 36.5396 27.2063 36.8181 26.5622 37.0548C26.4473 37.0931 26.2663 36.9469 26.1166 36.8877C26.1062 36.8425 26.0923 36.7972 26.0818 36.752C26.2802 36.6231 26.4787 36.4978 26.6179 36.4038C26.3986 35.8468 26.2385 35.3943 26.0331 34.9591C25.9913 34.8686 25.7859 34.799 25.6641 34.8094C25.3055 34.8407 25.1871 34.6945 25.2324 34.3568C25.2498 34.235 25.2359 34.1062 25.2359 33.9809C25.2359 33.403 25.2359 33.4099 25.7963 33.3333C25.8869 33.3229 26.0087 33.2498 26.04 33.1767C26.228 32.745 26.3951 32.3064 26.5796 31.8433C26.4473 31.6971 26.2872 31.5265 26.148 31.3699C26.4717 31.0287 26.785 30.7015 27.1262 30.3464C27.3072 30.5065 27.4883 30.6667 27.6449 30.8024C28.0975 30.6319 28.5257 30.4787 28.9469 30.3011C29.0339 30.2628 29.1245 30.141 29.1453 30.0435C29.1767 29.8834 29.1523 29.7163 29.1523 29.5178H30.5796C30.5796 29.5178 30.6249 29.5596 30.6214 29.577C30.5379 30.0992 30.7607 30.3777 31.2829 30.4299C31.3629 30.4369 31.436 30.4856 31.5126 30.5205C31.9373 30.7061 32.3342 30.6493 32.7032 30.3499C33.0235 30.691 33.3473 31.0322 33.7198 31.4256C33.5561 31.5474 33.3681 31.6867 33.1976 31.8085C33.4482 32.3586 33.3612 32.8262 32.9365 33.2115ZM34.6876 31.2933C34.0366 30.6075 33.4064 29.946 32.7554 29.2637C32.5849 29.4238 32.4909 29.5422 32.3655 29.6188C32.2054 29.7198 32.0244 29.7859 31.8538 29.8695C31.8016 29.6954 31.7006 29.5248 31.7006 29.3542C31.6902 27.6867 31.6936 26.0191 31.6936 24.3481V23.8155H28.6858C28.6858 23.0601 28.6789 22.3568 28.6963 21.6501C28.6963 21.5527 28.8111 21.4482 28.8947 21.3647C29.1175 21.1384 29.3751 20.9399 29.5805 20.6997C29.8486 20.3864 29.772 20.1915 29.3681 20.1392C29.0513 20.101 28.7311 20.1044 28.4108 20.0731C28.1253 20.0453 27.8364 19.9826 27.5509 19.9687C27.262 19.9513 26.9417 19.8921 26.691 19.993C26.0992 20.2263 25.497 20.2019 24.8877 20.2054C24.8077 20.2054 24.7241 20.2158 24.5709 20.2298C24.5709 20.5779 24.5918 20.9191 24.5605 21.2567C24.5466 21.4343 24.4804 21.6362 24.369 21.7755C23.8921 22.3742 23.3838 22.9417 22.9069 23.5405C22.7433 23.7493 22.5692 23.8503 22.3081 23.8155C22.2524 23.8085 22.1967 23.8155 22.141 23.8155C21.8103 23.7981 21.3299 23.9095 21.1871 23.7389C20.933 23.4326 20.8668 22.9591 20.7589 22.5448C20.7102 22.3638 20.7485 22.1584 20.752 21.9634C20.7624 21.5735 20.9121 21.3542 21.3403 21.2498C22.6632 20.9295 23.7076 19.342 23.5544 17.9913C23.5231 17.7406 23.3908 17.6745 23.1854 17.7441C23.0322 17.7929 22.8895 17.8903 22.7467 17.9704C22.2872 18.2245 21.8312 18.4856 21.3681 18.7328C20.8077 19.0322 20.4804 19.5126 20.2994 20.1079C20.2541 20.2646 20.2193 20.4282 20.1497 20.7032C19.9478 20.2367 19.725 19.8851 19.9687 19.4674C20.1358 19.1819 20.3098 18.8895 20.5292 18.6493C20.8355 18.3151 20.8599 18.235 20.4978 17.946C20.0627 17.6014 19.6275 17.2498 19.1715 16.933C18.8929 16.7415 18.7015 16.5152 18.6319 16.1845C18.611 16.0766 18.5692 15.9721 18.5344 15.8642C18.3069 15.1726 17.8207 14.8268 17.0757 14.8268H15.7876C15.6379 14.1514 15.5231 13.5318 15.3594 12.926C15.3107 12.752 15.1192 12.6197 14.9939 12.4665C14.8721 12.5988 14.7258 12.7137 14.6319 12.8634C14.2176 13.4865 13.8381 14.134 13.4064 14.7433C13.3159 14.8651 13.0479 14.8616 12.8007 14.9347C12.8564 14.7641 12.8842 14.6876 12.9051 14.6075C12.9782 14.3638 13.1802 14.0366 13.0896 13.8938C12.9017 13.5909 12.5953 13.2916 12.2715 13.1662C11.8155 12.9956 11.3003 12.9852 10.8094 12.9017C10.4265 12.839 10.047 12.7728 9.66405 12.7137C9.55962 12.6997 9.37859 12.6789 9.36466 12.7137C9.31941 12.832 9.28111 12.9991 9.33333 13.0966C9.79286 13.9878 10.329 14.8129 11.4221 15.0218C11.5196 15.0392 11.6136 15.0635 11.7041 15.0914C11.725 15.0983 11.7389 15.1297 11.8329 15.2515C11.4813 15.3281 11.1854 15.4256 10.8825 15.45C10.6493 15.4674 10.6179 15.5614 10.6144 15.7633C10.611 15.9547 10.5657 16.1462 10.5239 16.3342C10.423 16.7763 10.235 17.2115 10.2176 17.6571C10.1758 18.7676 10.2037 19.8816 10.2037 20.9922V21.497H7.42559C7.42559 22.2942 7.37337 23.0461 7.43951 23.7876C7.51262 24.5744 7.27589 25.1453 6.66318 25.6606C5.95648 26.2559 5.3403 26.9626 4.64404 27.6623C4.85988 27.8677 5.07572 28.0592 5.27763 28.2646C5.33681 28.3238 5.40296 28.4595 5.37511 28.4978C5.32637 28.5709 5.21149 28.6301 5.12446 28.6371C4.84595 28.6545 4.57093 28.644 4.23325 28.644V29.7963C4.19147 29.8103 4.1497 29.8242 4.10792 29.8381C3.78068 29.2846 3.42907 28.745 3.12968 28.1775C2.13751 26.2837 1.48999 24.2959 1.18364 22.2872C1.18016 22.2837 1.18016 22.2768 1.18016 22.2733C1.08964 21.5283 1.04439 20.7694 1.04439 20C1.04439 9.53177 9.53177 1.04439 20 1.04439C25.953 1.04439 31.262 3.78764 34.7328 8.08007C34.3986 8.32028 34.0505 8.53612 33.758 8.81114C33.5144 9.0409 33.3299 9.34726 33.1558 9.64317C33.1036 9.73368 33.1767 9.90078 33.1906 10.0296C33.3055 10.0052 33.4378 10.0122 33.5352 9.95648C34.1271 9.61532 34.7607 9.44822 35.443 9.45866C35.5788 9.46214 35.6832 9.46214 35.7633 9.47258C36 9.50043 36.0418 9.60487 36.181 9.99826C36.1567 10.0017 36.1323 10.0017 36.1079 10.0052C35.5927 10.0435 35.067 10.0714 34.5518 10.1375C34.3394 10.1654 34.1271 10.2698 33.9356 10.3742C33.6188 10.5483 33.5004 10.8338 33.5596 11.1854C33.6084 11.4987 33.6536 11.812 33.7337 12.1149C33.758 12.1984 33.8973 12.282 33.9983 12.3133C34.6701 12.5152 35.2689 12.3481 35.7702 11.8782C36.087 11.5788 36.3551 11.2376 36.6406 10.9138C36.658 10.8895 36.6788 10.8686 36.6997 10.8442C38.1862 13.4552 38.9452 16.456 38.9487 19.5022V19.5161C38.9487 23.6449 37.5561 27.8573 34.6876 31.2933Z" fill="#E8E8E4"/>
<path d="M24.1427 8.90862C24.0244 10.3708 23.356 11.3943 21.9669 11.8956C21.8764 11.9304 21.7128 11.9478 21.6675 11.8956C21.4064 11.6136 21.1349 11.3316 20.9469 11.0009C20.8703 10.8651 20.9295 10.5657 21.0374 10.4265C21.2776 10.1131 21.5527 9.80331 21.8764 9.58399C22.4091 9.22193 22.9904 8.92602 23.5579 8.61967C23.6797 8.55352 23.8642 8.51871 23.9826 8.56049C24.0661 8.59182 24.0905 8.78329 24.1427 8.90514V8.90862Z" fill="#E8E8E4"/>
<path d="M23.9896 11.9861C23.8712 13.2707 23.3316 14.228 22.1688 14.8094C21.8207 14.9835 21.5492 14.9591 21.2637 14.698C20.6127 14.1062 20.5814 13.6466 21.2254 13.0235C21.4587 12.7972 21.7615 12.6406 22.047 12.4735C22.4891 12.2158 22.9417 11.9791 23.3943 11.7389C23.5196 11.6728 23.7145 11.537 23.7772 11.5822C23.8886 11.6623 23.9234 11.8468 23.9896 11.9896V11.9861Z" fill="#E8E8E4"/>
<path d="M10.9765 12.3446C9.62576 12.456 8.72063 11.6623 8.09051 10.4508C8.02089 10.3185 8.02785 10.1445 8 9.9913C8.17058 9.96693 8.34465 9.90078 8.51175 9.92167C9.07224 9.98433 9.63969 10.0331 10.1828 10.1688C10.6423 10.2837 11.0949 10.4752 11.5091 10.7084C11.7981 10.8686 11.8607 11.1819 11.6902 11.5091C11.6101 11.6658 11.5544 11.8399 11.5196 12.0139C11.4708 12.2646 11.3768 12.4352 10.9695 12.3481L10.9765 12.3446Z" fill="#E8E8E4"/>
<path d="M30.9452 17.201C30.7781 17.201 30.611 17.208 30.4473 17.201C30.047 17.1767 29.8242 16.9678 29.7476 16.5674C29.5875 15.7493 29.8103 15.3629 30.6493 15.2306C31.0496 15.168 31.4708 15.2306 31.8816 15.262C32.3516 15.2933 32.8181 15.349 33.2846 15.4012C33.4134 15.4151 33.5387 15.4569 33.6675 15.4883C33.6292 15.6275 33.6223 15.7911 33.5422 15.9025C32.9434 16.752 32.0035 17.2219 30.9452 17.2045V17.201Z" fill="#E8E8E4"/>
<path d="M31.7633 17.8172C31.6936 18.0052 31.6728 18.141 31.5996 18.2489C30.8338 19.3908 29.3159 19.9095 28.0278 19.4708C27.9478 19.443 27.8399 19.3803 27.8155 19.3107C27.443 18.2872 27.9617 17.5422 29.0792 17.5631C29.6292 17.5735 30.1793 17.6954 30.7293 17.7546C31.0426 17.7894 31.3594 17.7963 31.7633 17.8207V17.8172Z" fill="#E8E8E4"/>
<path d="M23.7459 14.9835C23.7041 16.4909 22.9626 17.5109 21.6432 18.0052C21.4204 18.0888 21.2846 18.054 21.1662 17.8416C21.0862 17.7023 20.9748 17.5596 20.839 17.4726C20.5013 17.2498 20.4909 16.9782 20.6545 16.6475C20.8842 16.1845 21.1976 15.8329 21.6849 15.6136C22.2002 15.3803 22.6841 15.0775 23.1854 14.8129C23.3211 14.7398 23.4743 14.698 23.6205 14.6388C23.6728 14.7885 23.7285 14.9347 23.7459 14.98V14.9835Z" fill="#E8E8E4"/>
<path d="M32.9469 14.8372C32.6301 14.7955 32.3133 14.7641 32 14.7084C31.906 14.691 31.7528 14.6144 31.7459 14.5483C31.6971 14.1688 31.6345 13.7755 31.6832 13.403C31.7041 13.2393 31.9513 13.0131 32.1323 12.9748C32.5988 12.8703 33.0827 12.8146 33.5596 12.8181C34.0957 12.8181 34.6284 12.8982 35.161 12.9678C35.3246 12.9887 35.4778 13.0896 35.6345 13.1523C35.5614 13.295 35.5196 13.4656 35.4117 13.577C34.7398 14.2768 34.0296 14.9208 32.9469 14.8372Z" fill="#E8E8E4"/>
<path d="M9.58399 9.54221C9.07572 9.60836 8.71714 9.3403 8.3899 8.99565C7.92341 8.50827 7.66928 7.91993 7.54047 7.26893C7.49521 7.04265 7.53351 6.88599 7.81549 6.88251C8.63708 6.87554 9.41688 7.02872 10.1027 7.50914C10.6249 7.87467 10.6945 8.30287 10.3499 8.83203C10.2837 8.93647 10.1932 9.04439 10.1793 9.15579C10.1375 9.53873 9.93908 9.65013 9.58399 9.53873V9.54221Z" fill="#E8E8E4"/>
<path d="M23.5405 6.60052C23.4256 7.03916 23.3246 7.48129 23.1923 7.91297C23.0252 8.44909 22.5483 8.64404 22.0888 8.84247C22.0226 8.87032 21.8938 8.83551 21.8312 8.78329C21.6049 8.58486 21.3995 8.36553 21.1836 8.15666C20.8668 7.85727 20.8042 7.51262 21.0479 7.10183C21.497 6.33943 22.2002 5.8799 23.0078 5.56658C23.2097 5.48999 23.3629 5.54221 23.3873 5.79286C23.4151 6.05396 23.4569 6.31157 23.4917 6.57267C23.5091 6.57963 23.5231 6.5866 23.5405 6.59704V6.60052Z" fill="#E8E8E4"/>
<path d="M25.2742 20C24.644 19.0009 25.1279 17.0061 26.2733 16.2019C26.3708 16.3829 26.4926 16.5466 26.5553 16.7346C26.7815 17.4169 27.0009 18.1027 27.1958 18.7955C27.3177 19.2237 27.2167 19.2759 26.799 19.3977C26.2907 19.544 25.8068 19.7876 25.2776 20.0035L25.2742 20Z" fill="#E8E8E4"/>
<path d="M18.6284 10.2106C19.3977 10.7502 20.1358 11.2376 20.839 11.7702C21.2185 12.0592 21.1906 12.1984 20.9086 12.564C20.6684 12.8808 20.4491 13.2115 20.2402 13.5527C20.0975 13.7894 19.9199 13.7198 19.7911 13.6014C19.4569 13.2916 19.0809 12.9956 18.8477 12.6162C18.4439 11.9582 18.416 11.1958 18.503 10.4404C18.51 10.3673 18.5762 10.3011 18.6284 10.2106Z" fill="#E8E8E4"/>
<path d="M27.436 17.5109C27.0183 16.9678 26.9208 16.3064 27.0983 15.6762C27.255 15.1192 27.5996 14.611 27.8886 14.0957C27.9478 13.9913 28.1358 13.9112 28.2611 13.9147C28.3307 13.9147 28.4143 14.1097 28.456 14.228C28.6406 14.7467 28.8111 15.2724 28.9887 15.7981C29.0409 15.9547 29.107 16.1079 29.1488 16.2681C29.2985 16.8285 29.2498 16.8703 28.7137 17.0165C28.2924 17.1349 27.8956 17.3299 27.436 17.5109Z" fill="#E8E8E4"/>
<path d="M14.4682 11.6066C14.2559 12.1253 14.0609 12.6545 13.8242 13.1593C13.7128 13.3925 13.5457 13.4413 13.3055 13.2115C13.0513 12.9713 12.7241 12.8007 12.4143 12.6231C11.9896 12.3795 11.9443 12.2715 12.1671 11.8294C12.2472 11.6693 12.3621 11.53 12.4595 11.3768C12.7763 10.8755 13.0931 10.3742 13.3995 9.86597C13.5875 9.55614 13.7441 9.53177 13.8799 9.86597C14.1027 10.4091 14.2594 10.9835 14.4682 11.6066Z" fill="#E8E8E4"/>
<path d="M19.9164 16.7659C19.3211 16.5744 18.8303 16.1601 18.6179 15.5648C18.4091 14.98 18.3673 14.3325 18.2802 13.7093C18.2663 13.6049 18.3638 13.4204 18.4578 13.3786C18.5413 13.3438 18.7015 13.4378 18.8024 13.5109C19.2446 13.8172 19.6832 14.1375 20.1184 14.4508C20.3203 14.597 20.5292 14.7363 20.7171 14.8964C20.9748 15.1192 21.027 15.3037 20.7276 15.5997C20.4108 15.9095 20.2054 16.3342 19.913 16.7659H19.9164Z" fill="#E8E8E4"/>
<path d="M12.2715 10.5692C11.8016 10.2698 11.3246 10.0017 10.8964 9.66754C10.7781 9.57354 10.7084 9.23238 10.785 9.10357C11.2272 8.34117 11.718 7.60661 12.195 6.8651C12.2054 6.84769 12.2437 6.84421 12.2681 6.83377C12.9991 7.51958 13.4621 9.58051 12.2681 10.5692H12.2715Z" fill="#E8E8E4"/>
<path d="M28.9852 13.8277C28.9713 12.933 29.4308 12.2541 29.96 11.6205C30.1723 11.3629 30.3011 11.4186 30.4056 11.7389C30.6144 12.3829 30.8268 13.027 31.0531 13.6675C31.3003 14.3673 31.2063 14.5344 30.4926 14.7119C30.2037 14.785 29.9147 14.8999 29.6536 15.0496C29.403 15.1923 29.2742 15.0949 29.215 14.8825C29.1175 14.5379 29.0583 14.1828 28.9817 13.8312L28.9852 13.8277Z" fill="#E8E8E4"/>
<path d="M18.7293 7.08442C19.5962 7.67972 20.3307 8.17058 21.0513 8.67885C21.3264 8.8738 21.3368 9.12097 21.1419 9.39948C20.8912 9.75805 20.6475 10.1236 20.4212 10.4961C20.2855 10.7189 20.1601 10.6179 20.0104 10.5309C19.1575 10.0331 18.7502 9.27067 18.7119 8.30287C18.698 7.91993 18.7224 7.53351 18.7293 7.08442Z" fill="#E8E8E4"/>
<path d="M32.2959 9.06179C32.4212 9.49347 32.5396 9.92863 32.6823 10.3568C32.8007 10.7119 32.9574 11.0531 33.0896 11.4012C33.2707 11.8816 33.1558 12.087 32.6789 12.2402C32.3168 12.3586 31.9687 12.5292 31.6031 12.644C31.4987 12.6754 31.2898 12.6336 31.2446 12.5605C30.6876 11.6031 31.1993 9.65013 32.1358 9.08268C32.1671 9.06179 32.2158 9.06876 32.2924 9.05831L32.2959 9.06179Z" fill="#E8E8E4"/>
<path d="M11.2759 7.30026C11.2515 7.33855 11.2063 7.47781 11.1192 7.51958C11.0531 7.55091 10.8999 7.49173 10.8372 7.42211C10.3151 6.88599 9.67798 6.57615 8.95387 6.42994C8.72759 6.38468 8.60226 6.2698 8.63708 6.02959C8.68581 5.68842 8.72759 5.34378 8.81114 5.00957C8.83203 4.92254 9.00609 4.8007 9.0966 4.81114C9.953 4.90165 11.2759 6.37424 11.2794 7.30026H11.2759Z" fill="#E8E8E4"/>
<path d="M21.2463 3.93734C21.5004 4.38294 21.7406 4.77633 21.9391 5.18712C21.9774 5.26719 21.8764 5.48303 21.7789 5.54917C21.1628 5.97737 20.6684 6.49957 20.3795 7.20627C20.3481 7.27937 20.2228 7.39077 20.1845 7.37337C20.0835 7.33159 19.9408 7.24108 19.9269 7.15405C19.8816 6.87206 19.8468 6.57615 19.8747 6.29069C19.9687 5.35422 20.3864 4.58834 21.2428 3.93037L21.2463 3.93734Z" fill="#E8E8E4"/>
<path d="M15.8747 31.2306C15.8747 33.3368 14.148 35.0426 12.0139 35.0461C9.83464 35.0496 8.10096 33.3368 8.10792 31.1819C8.11488 29.0862 9.85901 27.3908 12 27.3908C14.1688 27.3943 15.8782 29.0896 15.8747 31.2306Z" fill="#E8E8E4"/>
</g>
</g>
<defs>
<filter id="filter0_b_1015_861" x="-4" y="-4" width="48" height="48" filterUnits="userSpaceOnUse" color-interpolation-filters="sRGB">
<feFlood flood-opacity="0" result="BackgroundImageFix"/>
<feGaussianBlur in="BackgroundImageFix" stdDeviation="2"/>
<feComposite in2="SourceAlpha" operator="in" result="effect1_backgroundBlur_1015_861"/>
<feBlend mode="normal" in="SourceGraphic" in2="effect1_backgroundBlur_1015_861" result="shape"/>
</filter>
<filter id="filter1_b_1015_861" x="-3.1665" y="-3.16663" width="46.3335" height="46.3334" filterUnits="userSpaceOnUse" color-interpolation-filters="sRGB">
<feFlood flood-opacity="0" result="BackgroundImageFix"/>
<feGaussianBlur in="BackgroundImageFix" stdDeviation="2"/>
<feComposite in2="SourceAlpha" operator="in" result="effect1_backgroundBlur_1015_861"/>
<feBlend mode="normal" in="SourceGraphic" in2="effect1_backgroundBlur_1015_861" result="shape"/>
</filter>
<clipPath id="clip0_1015_861">
<rect width="40" height="40" fill="white"/>
</clipPath>
</defs>
</svg>
