<svg width="40" height="40" viewBox="0 0 40 40" fill="none" xmlns="http://www.w3.org/2000/svg">
<g id="Categories / disaster" opacity="0.5" clip-path="url(#clip0_1015_692)" filter="url(#filter0_b_1015_692)">
<g id="Ellipse 50" filter="url(#filter1_b_1015_692)">
<circle cx="20.0002" cy="20" r="19.1667" fill="#003247"/>
</g>
<g id="Vector">
<path d="M19.9983 0C8.97206 0 0 8.97128 0 20C0 31.0287 8.97206 40 19.9983 40C31.0245 40 40 31.0287 40 20C40 8.97128 31.0279 0 19.9983 0ZM23.4485 38.6632C22.9472 38.7433 22.4528 38.8094 21.9619 38.8547C21.7182 38.879 21.4779 38.8999 21.2377 38.9138C21.1054 38.9243 20.9731 38.9312 20.8443 38.9347C20.5379 38.9486 20.235 38.9556 19.9356 38.9556C19.7615 38.9556 19.5874 38.9521 19.4168 38.9487C17.0494 38.886 14.7794 38.4021 12.6208 37.4656C12.5581 37.4413 12.4919 37.4134 12.4293 37.3821C9.5326 36.1218 7.01541 34.1549 5.0866 31.7041C4.8986 31.4639 4.71407 31.2202 4.53999 30.973C4.35895 30.7258 4.18835 30.4752 4.0282 30.2176C3.95161 30.0992 3.87501 29.9774 3.8019 29.8555C3.65219 29.6118 3.50944 29.3647 3.37366 29.114C3.30403 28.9887 3.23788 28.8599 3.17173 28.7346C3.07424 28.55 2.98372 28.3655 2.89668 28.1775C1.7965 25.8869 1.14544 23.342 1.0584 20.6545C1.04796 20.4352 1.04448 20.2193 1.04448 20C1.041 18.7224 1.1733 17.4482 1.43093 16.1775C1.43093 16.1706 1.43442 16.1601 1.4379 16.1532C1.46227 16.0278 1.50057 15.8921 1.57716 15.7981C3.38411 13.5666 5.46958 11.6762 8.13996 10.5239C11.2177 9.20104 14.3442 9.24282 17.495 10.2454C18.0312 10.416 18.5604 10.6214 19.0861 10.8059C18.2087 10.8616 17.3383 10.8338 16.5027 10.9835C14.6854 11.3072 13.9229 12.3655 14.09 14.2559C13.8289 14.2211 13.5782 14.1758 13.3275 14.1584C11.162 14.0296 9.60223 14.9974 8.59257 16.8564C7.55157 18.7641 7.60728 20.7763 8.227 22.7955C8.88502 24.9399 10.1349 26.7293 11.6703 28.3342C14.1353 30.9069 17.112 32.7485 20.2455 34.3847C21.7042 35.1471 23.1143 36.0139 24.5243 36.8668C24.9769 37.1419 25.3773 37.5144 25.6524 38.0992C25.6628 38.1166 25.6698 38.1305 25.6767 38.148C24.8934 38.3325 24.1796 38.5448 23.4485 38.6632ZM27.6195 37.3612C27.2226 37.5318 26.8222 37.6849 26.4148 37.8207C25.9065 36.8111 25.0292 36.1601 24.0926 35.6171C22.606 34.7537 21.0776 33.9634 19.5665 33.1384C19.4412 33.0688 19.3159 32.9922 19.2114 32.839C19.5491 32.839 19.8903 32.8355 20.2315 32.839C21.189 32.846 22.1499 32.8668 23.1073 32.8494C23.2849 32.846 23.4833 32.7276 23.6365 32.6127C24.2179 32.188 24.2493 31.5579 24.2458 30.9069C24.2458 29.1976 24.2632 27.4883 24.2771 25.7789C24.2771 25.6571 24.2876 25.5352 24.2945 25.3333C24.674 25.584 25.0013 25.7998 25.3321 26.0191C25.4713 26.1097 25.6001 26.2176 25.7464 26.2976C26.1676 26.517 26.4009 26.4404 26.6098 26.0296C27.2086 24.8425 27.1111 25.0235 26.2129 24.2855C23.1038 21.7406 19.9983 19.1958 16.8927 16.651C16.7952 16.5744 16.6942 16.4978 16.5654 16.3969C14.7236 17.9147 12.8888 19.4256 10.9426 21.027C10.9426 20.5013 10.9461 20.1044 10.9426 19.7076C10.9357 19.2028 10.7616 19.0496 10.2533 19.0775C9.98868 19.0914 9.72408 19.1227 9.46296 19.0983C9.09392 19.067 8.95117 19.248 8.94769 19.5753C8.94073 20.3655 8.94421 21.1558 8.94421 21.946C8.87458 21.9495 8.80146 21.953 8.73183 21.9565C8.68309 21.2602 8.58908 20.5605 8.59605 19.8677C8.61346 18.4091 9.07303 17.1036 10.1384 16.0731C11.3152 14.9382 12.6939 14.6284 14.2502 15.1645C14.3128 15.1889 14.3755 15.2202 14.4416 15.2376C14.8246 15.349 15.0335 15.161 14.9778 14.7676C14.9291 14.409 14.8559 14.054 14.849 13.6954C14.8351 12.7171 15.2598 12.1393 16.1998 11.8399C17.2304 11.5126 18.2888 11.5544 19.3333 11.7215C20.2489 11.8712 21.1507 12.1114 22.0628 12.2785C22.223 12.3064 22.411 12.1636 22.5886 12.101C22.512 11.9304 22.4841 11.6762 22.3518 11.5997C19.3437 9.84508 16.1615 8.651 12.6138 8.74848C9.60571 8.83203 6.94926 9.90426 4.5957 11.7319C3.84019 12.3203 3.16128 12.9991 2.44756 13.6397C2.34659 13.7267 2.24911 13.8207 2.10984 13.9495C2.43015 12.839 2.91061 11.7076 3.5373 10.597C3.61737 10.4543 3.69745 10.3116 3.78797 10.1723C3.86108 10.04 3.94464 9.91123 4.0282 9.78242C4.13265 9.6188 4.24058 9.45518 4.35199 9.29504C4.45992 9.1349 4.57133 8.97476 4.6897 8.8181C8.13996 4.10792 13.7105 1.04439 19.9983 1.04439C30.4709 1.04439 38.9555 9.53177 38.9555 20C38.9555 27.6867 34.3807 34.3081 27.8005 37.2811C27.7413 37.309 27.6821 37.3368 27.6195 37.3612Z" fill="#E8E8E4"/>
<path d="M37.2672 17.4871C37.1355 17.5775 36.9854 17.6504 36.8812 17.7611C36.7649 17.8835 36.6944 18.0409 36.5903 18.21C36.4341 17.4143 36.3146 16.6943 36.1462 15.9832C36.0941 15.7558 36.1094 15.6305 36.3054 15.4818C36.6577 15.2166 36.9578 14.8902 36.8966 14.4238C36.8782 14.2926 36.7067 14.179 36.6056 14.0536C36.4892 14.1644 36.3452 14.2548 36.2626 14.3859C36.1278 14.5987 36.0298 14.8348 35.9195 15.0621C35.8736 15.0505 35.8307 15.0417 35.7878 15.0301C35.6469 14.5695 35.163 14.2518 35.2487 13.6806C35.2732 13.5261 35.0803 13.29 34.918 13.1792C34.6791 13.0102 34.3911 12.8732 34.1032 12.8032C32.388 12.3719 30.6698 12.401 28.9729 12.8936C28.6575 12.984 28.3573 13.1763 28.1 13.3804C27.8091 13.6135 27.8489 13.9167 28.0051 14.2344C28.3083 14.8406 28.5595 15.4731 28.8321 16.091C28.7279 16.0881 28.6912 16.056 28.6728 16.0152C28.5748 15.8054 28.4216 15.68 28.1858 15.7995C27.9224 15.9307 27.953 16.1843 28.1062 16.3329C28.3451 16.5661 28.6483 16.7351 28.927 16.9304C29.0465 17.015 29.218 17.0732 29.2762 17.1869C29.5334 17.6737 29.754 18.1779 30.0296 18.755C29.607 18.6122 29.2792 18.5073 29.1169 18.1371C29.0679 18.0264 28.8688 17.9768 28.7402 17.8981C28.6605 18.0351 28.4859 18.2041 28.5227 18.3003C28.6146 18.5364 28.7555 18.8075 28.9638 18.9445C29.3007 19.1602 29.7111 19.2709 30.0817 19.4458C30.2073 19.5041 30.3665 19.6003 30.4033 19.711C30.682 20.5621 30.731 21.4365 30.6453 22.2118C30.4125 22.241 30.1185 22.1973 30.0572 22.2934C29.7938 22.7015 30.1858 22.9318 30.4247 23.1912C30.0878 23.9898 29.512 24.6106 28.8902 25.1848C27.3037 26.6509 26.7707 28.5046 26.6666 30.5216C26.6605 30.6265 26.8136 30.8101 26.9208 30.8305C27.025 30.8509 27.1965 30.7344 27.2761 30.6323C27.3588 30.5303 27.3588 30.37 27.4048 30.2389C27.8611 28.8748 28.8014 27.8546 29.9653 27.0065C31.5029 25.8902 32.973 24.7039 34.3115 23.3748C34.4065 23.2815 34.5565 23.2349 34.6821 23.1678C35.1967 22.8909 35.748 22.6549 36.2135 22.3138C36.4279 22.1594 36.5015 21.8009 36.575 21.5211C36.5933 21.4424 36.3851 21.2354 36.2687 21.2267C36.1676 21.2179 35.9685 21.3899 35.9501 21.5036C35.8858 21.8941 35.5857 22.0311 35.2089 22.2643C35.2977 22.104 35.3314 22.0311 35.3743 21.9641C35.8337 21.215 36.1768 20.4222 36.3269 19.5682C36.3943 19.1864 36.529 18.9182 36.9058 18.7259C37.2273 18.5597 37.4938 18.2799 37.4999 17.8981C37.503 17.7611 37.3499 17.6241 37.2672 17.4871ZM28.5258 13.8875C29.3803 12.9723 33.7388 12.8965 34.6331 13.7884C34.4126 13.9021 34.2196 14.0449 34.0022 14.1061C32.4003 14.5695 30.7862 14.5987 29.169 14.179C28.9546 14.1236 28.7647 13.9983 28.5258 13.8875ZM29.561 16.1988C29.3956 15.7529 29.2088 15.3157 29.0128 14.8319C30.9822 15.2195 32.8689 15.2312 34.7556 14.5142C34.9118 14.7969 35.0711 15.0913 35.2457 15.409C34.4646 15.8345 33.6591 16.1201 32.8199 16.2455C31.898 16.3854 30.9546 16.4174 30.0235 16.4991C29.7785 16.5195 29.6437 16.4174 29.561 16.1988ZM32.6361 24.0627C31.6376 24.8613 30.6208 25.6453 29.6315 26.4585C28.9699 27.0006 28.3451 27.5836 27.7264 28.1286C27.9254 27.4699 28.3022 26.8433 28.7922 26.2749C29.1169 25.896 29.4875 25.555 29.806 25.1731C30.2624 24.6194 30.6881 24.0452 31.1231 23.4885H33.2701C33.019 23.7187 32.8383 23.9023 32.6361 24.0627ZM35.5795 19.8684C35.3161 20.8361 34.8414 21.7076 34.1951 22.4946C34.1063 22.6024 33.9593 22.7073 33.8215 22.7394C33.0588 22.9114 32.2839 22.99 31.4998 22.8589C31.3313 22.8327 31.2241 22.8006 31.2548 22.6024C31.411 21.6289 31.3528 20.6583 31.0833 19.6353C32.6606 19.7985 34.1706 19.6965 35.7204 19.2767C35.6684 19.5012 35.6316 19.6848 35.5795 19.8684ZM35.4693 18.6851C34.0297 19.0873 32.5657 19.1689 31.0833 18.994C30.9822 18.9824 30.8444 18.9066 30.8015 18.8221C30.5258 18.2828 30.2747 17.732 29.9898 17.1374C31.9286 17.1986 33.7326 16.8313 35.5612 15.9919C35.6622 16.7818 35.7602 17.5017 35.8399 18.2245C35.8674 18.4694 35.748 18.6064 35.4693 18.6851Z" fill="#E8E8E4"/>
</g>
</g>
<defs>
<filter id="filter0_b_1015_692" x="-4" y="-4" width="48" height="48" filterUnits="userSpaceOnUse" color-interpolation-filters="sRGB">
<feFlood flood-opacity="0" result="BackgroundImageFix"/>
<feGaussianBlur in="BackgroundImageFix" stdDeviation="2"/>
<feComposite in2="SourceAlpha" operator="in" result="effect1_backgroundBlur_1015_692"/>
<feBlend mode="normal" in="SourceGraphic" in2="effect1_backgroundBlur_1015_692" result="shape"/>
</filter>
<filter id="filter1_b_1015_692" x="-3.1665" y="-3.16663" width="46.3335" height="46.3334" filterUnits="userSpaceOnUse" color-interpolation-filters="sRGB">
<feFlood flood-opacity="0" result="BackgroundImageFix"/>
<feGaussianBlur in="BackgroundImageFix" stdDeviation="2"/>
<feComposite in2="SourceAlpha" operator="in" result="effect1_backgroundBlur_1015_692"/>
<feBlend mode="normal" in="SourceGraphic" in2="effect1_backgroundBlur_1015_692" result="shape"/>
</filter>
<clipPath id="clip0_1015_692">
<rect width="40" height="40" fill="white"/>
</clipPath>
</defs>
</svg>
