<svg width="40" height="40" viewBox="0 0 40 40" fill="none" xmlns="http://www.w3.org/2000/svg">
<g id="Categories / Health" opacity="0.5" clip-path="url(#clip0_1015_1511)" filter="url(#filter0_b_1015_1511)">
<g id="Ellipse 50" filter="url(#filter1_b_1015_1511)">
<circle cx="20.0002" cy="20" r="19.1667" fill="#003247"/>
</g>
<g id="Vector">
<path d="M28.846 13.8381C28.5396 13.859 27.3699 13.9286 26.799 13.9321C26.7537 13.9321 26.7084 13.9321 26.6632 13.9321C26.3325 13.9217 26.0748 14.0191 25.8486 14.2628C25.584 14.5483 25.3124 14.8303 25.02 15.0844C24.6545 15.4012 24.3829 15.342 24.1567 14.9138C24.0244 14.6667 23.9617 14.3916 23.8677 14.1305C23.7911 13.9286 23.7041 13.9008 23.5474 14.0644C23.2306 14.3916 22.9069 14.7189 22.5727 15.0357C22.4021 15.1958 22.2141 15.3699 21.9495 15.2829C21.6815 15.1958 21.5875 14.9591 21.5561 14.698C21.4238 13.678 21.2498 12.6649 21.1419 11.6449C21.1245 11.4917 21.1279 11.3386 21.0409 11.1645C20.7728 12.3133 20.5535 13.4413 20.282 14.5587C20.0627 15.4604 19.8921 16.376 19.6728 17.2811C19.6379 17.4308 19.6066 17.5805 19.5335 17.7163C19.436 17.8903 19.2933 17.9843 19.0949 17.9843C18.9034 17.9809 18.792 17.8625 18.7119 17.7058C18.6249 17.5283 18.5831 17.3403 18.5483 17.1453C18.2942 15.7528 17.9774 14.3708 17.6989 12.9817C17.671 12.8494 17.6675 12.7067 17.5805 12.5883C17.3786 12.6231 17.3124 12.7903 17.2115 12.9121C16.8738 13.3333 16.564 13.7789 16.2158 14.1967C16.0836 14.3568 15.9513 14.5205 15.7389 14.5831C14.3499 14.6353 12.9643 14.597 11.5753 14.604C11.4395 14.604 11.3107 14.5727 11.1958 14.4961H11.1923C11.2063 14.517 11.2237 14.5344 11.2376 14.5553C13.5735 17.6292 16.4352 20.188 19.3142 22.7258C19.4708 22.8651 19.6345 22.9939 19.8468 23.1715C20.4909 22.604 21.1245 22.0644 21.7406 21.5039C23.8016 19.6379 25.8207 17.7302 27.6101 15.5927C28.0209 15.1018 28.3725 14.5692 28.7728 14.0679C28.7798 14.0574 28.7868 14.0505 28.7972 14.04L28.8077 14.0261L28.9191 13.8346H28.8529C28.8529 13.8346 28.846 13.8346 28.8425 13.8381H28.846Z" fill="#E8E8E4"/>
<path d="M29.4413 12.9574C29.4621 12.8216 29.4865 12.6823 29.5109 12.5466C29.5144 12.5222 29.5178 12.4978 29.5213 12.4769C29.5492 12.3307 29.5735 12.1845 29.5979 12.0418C29.6014 12.0244 29.6049 12.007 29.6049 11.993C29.6188 11.913 29.6327 11.8329 29.6432 11.7528C29.6571 11.6728 29.6675 11.5892 29.678 11.5091C29.6989 11.349 29.7128 11.1889 29.7232 11.0252C29.9077 7.58921 27.7424 5.14883 24.5535 4.80766C23.2585 4.66841 22.0087 4.84943 20.9782 5.70931C20.5222 6.08877 20.188 6.61445 19.7911 7.08094C19.7911 7.08094 19.7563 7.04613 19.7319 7.00087C18.8999 5.30896 17.403 4.73107 15.6658 4.77285C13.4482 4.82855 11.6031 5.74064 10.6075 7.80157C10.1271 8.79721 9.8799 9.79286 9.8799 10.7676C9.8799 10.8477 9.88338 10.9278 9.88686 11.0078C9.88686 11.067 9.89034 11.1297 9.8973 11.1923C9.8973 11.2063 9.90078 11.2167 9.90078 11.2306C9.90775 11.3211 9.91819 11.4082 9.92863 11.4952C9.9356 11.5614 9.94604 11.631 9.95648 11.7006C9.98781 11.8677 10.0226 12.0348 10.0644 12.2019C10.0783 12.2507 10.0923 12.2994 10.1062 12.3481C10.1305 12.4352 10.1584 12.5222 10.1862 12.6057C10.2106 12.6754 10.235 12.7415 10.2594 12.8077C10.2907 12.8912 10.3255 12.9748 10.3603 13.0583C10.3916 13.1349 10.4265 13.208 10.4648 13.2846C10.5065 13.3751 10.5518 13.4656 10.597 13.5527C10.6423 13.6362 10.6876 13.7163 10.7363 13.7998C10.7746 13.866 10.8129 13.9286 10.8547 13.9948C10.8442 13.9669 10.8338 13.9391 10.8268 13.9112C10.9173 13.6292 11.161 13.7163 11.3455 13.7163C12.5117 13.7024 13.678 13.6954 14.8442 13.7163C15.248 13.7232 15.5231 13.5944 15.7598 13.2742C16.2402 12.6266 16.7311 11.9896 17.2324 11.3594C17.3368 11.2272 17.4378 11.0949 17.577 11.0009C17.8451 10.8268 18.134 10.9034 18.2768 11.1923C18.3742 11.3908 18.409 11.6136 18.4543 11.8329C18.6701 12.9191 18.879 14.0122 19.154 15.2028C19.3351 14.4265 19.4569 13.7441 19.6171 13.0688C19.9896 11.5161 20.3238 9.95648 20.6614 8.39687C20.7206 8.11488 20.8425 7.8886 21.1767 7.90252C21.5178 7.91993 21.6501 8.16014 21.6884 8.45953C21.8834 10.1131 22.141 11.7563 22.3673 13.4064C22.3812 13.5004 22.3638 13.6014 22.4613 13.6884C22.7572 13.5213 22.9487 13.2428 23.1923 13.02C23.3246 12.8982 23.443 12.7589 23.5822 12.6475C23.9025 12.3934 24.2228 12.4595 24.4073 12.8216C24.5187 13.0444 24.5953 13.2846 24.6754 13.5213C24.7694 13.7998 24.8877 13.8555 25.1001 13.6188C25.2289 13.4761 25.3681 13.3403 25.5144 13.2115C25.6292 13.107 25.7476 13.0131 25.9182 13.0235C26.8233 13.0618 27.7319 13.0305 28.6371 13.0374C28.8773 13.0374 29.121 13.0444 29.3507 13.1105L29.4413 12.9574Z" fill="#E8E8E4"/>
<path d="M20 0C8.97128 0 0 8.97128 0 20C0 31.0287 8.97128 40 20 40C31.0287 40 40 31.0287 40 20C40 8.97128 31.0287 0 20 0ZM1.76849 14.6945C1.84856 14.416 2.0087 14.3185 2.25587 14.2698C3.67276 13.9948 5.10009 14.7502 5.63272 16.0975C5.76849 16.4456 5.953 16.6266 6.32202 16.7137C6.62141 16.7868 6.92428 16.9504 7.15753 17.1558C7.42907 17.3925 7.71801 17.4761 8.05918 17.5004C9.60835 17.6188 10.6493 18.4439 11.2968 19.8259C11.4012 20.0453 11.5753 20.275 11.7772 20.4003C12.7937 21.0305 13.0583 22.2872 12.3272 23.2446C12.1079 23.5265 12.0592 23.7598 12.2785 24.0627C12.6162 24.5292 12.6789 25.0722 12.5326 25.6118C12.4282 26.0017 12.4769 26.2315 12.8808 26.3986C13.3159 26.5762 13.4935 27.0113 13.3925 27.4674C13.309 27.8433 12.9608 28.1427 12.564 28.1775C12.1149 28.2158 11.7076 28 11.5927 27.5614C11.4708 27.0844 11.2341 26.973 10.7572 27.0113C9.77198 27.0949 8.96432 26.416 8.77981 25.3716C8.71714 25.0026 8.56397 24.8773 8.2054 24.8947C6.58312 24.9852 5.36118 24.3307 4.52567 22.9347C4.43864 22.792 4.19843 22.6667 4.02785 22.6597C2.37772 22.611 1.48999 21.772 1.31941 20.1288C1.28111 19.7528 1.10009 19.3943 0.985204 19.0287C1.14534 17.5387 1.37859 16.1044 1.76849 14.6945ZM13.8729 37.8903C13.7267 37.8486 13.6049 37.8312 13.497 37.7789C12.3969 37.2567 11.2933 36.738 10.2037 36.195C10.054 36.1218 9.96345 35.9339 9.84508 35.7981C9.87641 35.7598 9.90426 35.7215 9.93211 35.6832H11.5544C11.7076 33.765 11.8573 31.8782 12.007 29.9983C12.0766 29.9774 12.1149 29.9565 12.1532 29.953C13.0165 29.8834 13.0305 29.8834 13.1036 30.7293C13.2393 32.2785 13.3542 33.8277 13.4795 35.3769C13.4865 35.4569 13.5004 35.5405 13.5144 35.6414C13.6362 35.6658 13.7511 35.6902 13.8729 35.7145V37.8903ZM30.3011 35.8851C29.8242 36.2054 29.3229 36.4909 28.7694 36.8251V34.8129C29.1175 34.7398 29.4517 34.6667 29.7859 34.597C29.8137 34.5901 29.8625 34.5761 29.866 34.5866C30.0366 34.886 30.2211 35.1819 30.3603 35.4952C30.4056 35.6031 30.3777 35.8329 30.3011 35.8851ZM28.4491 33.7615C26.4125 33.7615 24.7659 32.101 24.7763 30.0644C24.7833 28.0279 26.4265 26.4195 28.4943 26.4195C30.5379 26.423 32.1253 28.0278 32.1218 30.0888C32.1218 32.1567 30.517 33.7615 28.4491 33.7615ZM31.0009 35.4534C30.8338 35.0496 30.691 34.7084 30.5379 34.3464C30.8825 34.1131 31.2132 33.8903 31.5892 33.6362C31.8085 33.8903 32.0278 34.1514 32.282 34.4508C31.899 34.7502 31.4708 35.0844 31.0009 35.4534ZM33.7337 33.0931C33.4621 33.4099 33.1906 33.7232 32.8842 34.0748C32.5396 33.7058 32.3029 33.4552 32.0418 33.1767C32.2402 32.8808 32.4595 32.5535 32.6963 32.2019C33.0374 32.3481 33.3681 32.4804 33.6919 32.6301C33.9565 32.752 33.8764 32.926 33.7337 33.0931ZM34.7955 31.8329C34.5657 32.0487 34.1619 32.2228 33.765 32.0209C33.5074 31.8886 33.2359 31.7842 32.9469 31.6554C33.0131 31.2724 33.0688 30.893 33.1488 30.517C33.1628 30.4508 33.2742 30.3568 33.3438 30.3534C34.1688 30.3429 34.9939 30.3464 35.9443 30.3464C35.5231 30.9104 35.2202 31.436 34.7955 31.8329ZM35.248 29.7789C34.5762 29.7128 33.8903 29.765 33.1906 29.765C33.1036 29.3681 33.0165 28.9922 32.9399 28.6162C32.9295 28.5605 32.9678 28.4526 33.0026 28.4386C33.4552 28.2994 33.8242 27.8642 34.3882 28.101C34.7815 28.2646 35.2341 27.9965 35.342 27.5962C35.4569 27.1819 35.2272 26.7711 34.8059 26.6562C34.4334 26.5553 34.0783 26.6701 33.9704 27.0113C33.8346 27.443 33.5248 27.5648 33.1802 27.7006C33.0131 27.7668 32.8494 27.8399 32.6684 27.913C32.4421 27.5857 32.2228 27.2724 31.9756 26.9138C32.6092 26.2837 33.2289 25.6467 33.8799 25.0444C33.9739 24.9539 34.2106 25.0061 34.3812 25.0061C34.7885 25.0026 35.074 24.8111 35.2306 24.4456C35.3803 24.0905 35.2654 23.6623 34.9765 23.4186C34.691 23.1784 34.2489 23.1436 33.9252 23.342C33.5944 23.5474 33.4865 23.8573 33.5074 24.2332C33.5178 24.3725 33.5004 24.5605 33.4169 24.6475C32.8146 25.2811 32.1915 25.8938 31.5718 26.5205C31.2167 26.2837 30.8964 26.0714 30.5379 25.8346C30.6841 25.4795 30.8164 25.1175 30.9835 24.7728C31.0252 24.6789 31.1645 24.6197 31.2689 24.5709C31.7006 24.3725 31.8851 23.9513 31.7041 23.5439C31.537 23.1645 31.1158 22.9939 30.7328 23.1506C30.3116 23.3177 30.148 23.7424 30.329 24.1845C30.423 24.4247 30.1758 25.4308 29.9774 25.5527C29.9182 25.5875 29.8172 25.5805 29.7406 25.5666C29.4308 25.5074 29.121 25.4378 28.752 25.3612C28.752 24.463 28.745 23.5509 28.7624 22.6388C28.7624 22.5448 28.8877 22.4404 28.9748 22.3638C29.4169 21.9774 29.4621 21.396 29.0722 21.0061C28.7171 20.644 28.1114 20.658 27.7668 21.0339C27.3943 21.4378 27.4708 22.0157 27.9165 22.3916C28.0348 22.4891 28.1462 22.6701 28.1532 22.8164C28.1741 23.5648 28.1532 24.3168 28.1671 25.0688C28.1671 25.302 28.1079 25.4482 27.8433 25.4308C27.8155 25.4273 27.7876 25.4343 27.7598 25.4378C27.4778 25.4761 27.0635 25.6432 26.9452 25.5213C26.7015 25.2707 26.604 24.8703 26.4752 24.5187C26.4473 24.4421 26.517 24.3168 26.5587 24.2228C26.7502 23.7876 26.6075 23.349 26.2106 23.1645C25.8207 22.9835 25.3681 23.1506 25.1976 23.5439C25.0165 23.9547 25.201 24.3655 25.6292 24.5744C25.772 24.644 25.9112 24.7798 25.9843 24.9225C26.1375 25.215 26.2419 25.5318 26.3673 25.8451C26.0226 26.0748 25.7023 26.2907 25.3438 26.5309C24.7032 25.8938 24.0487 25.2533 23.4151 24.5988C23.342 24.5222 23.356 24.3446 23.3594 24.2124C23.3768 23.6449 23.0113 23.2167 22.4856 23.2028C21.9809 23.1923 21.5631 23.6205 21.577 24.1392C21.5909 24.6823 22.0157 25.0653 22.5866 24.9887C22.8442 24.9504 22.9939 25.027 23.161 25.1976C23.7319 25.7859 24.3203 26.3603 24.9156 26.9521C24.7032 27.2689 24.5048 27.5648 24.2715 27.906C23.9095 27.7493 23.537 27.6101 23.1854 27.4291C23.0879 27.3803 23.0496 27.2063 22.9939 27.0879C22.8303 26.7258 22.4299 26.5413 22.0609 26.6632C21.6815 26.7885 21.4552 27.1784 21.5457 27.5474C21.6397 27.9373 22.04 28.275 22.3777 28.1218C22.9138 27.8747 23.3037 28.1532 23.7389 28.3307C23.8259 28.3655 23.913 28.4108 24.0139 28.463C23.9234 28.8912 23.8364 29.309 23.7389 29.765C22.8372 29.765 21.9356 29.772 21.0339 29.7546C20.9399 29.7546 20.8251 29.6536 20.752 29.5666C20.3586 29.1001 19.7702 29.0374 19.3699 29.4273C19.0009 29.7859 19.0078 30.3916 19.3838 30.7328C19.805 31.1158 20.3725 31.0357 20.7659 30.5553C20.8425 30.4613 20.9748 30.3568 21.0827 30.3534C21.9565 30.3359 22.8303 30.3429 23.7285 30.3429C23.819 30.785 23.9095 31.2028 24.0035 31.6588C23.6693 31.805 23.3351 31.9652 22.9869 32.094C22.8895 32.1288 22.7502 32.0835 22.6458 32.0453C22.1758 31.8642 21.7476 32.0278 21.584 32.463C21.4343 32.8529 21.6153 33.2707 22.0017 33.4238C22.4369 33.5979 22.8303 33.3995 23.0252 32.9225C23.067 32.8181 23.1436 32.6963 23.2376 32.6475C23.5579 32.4874 23.8921 32.3586 24.2367 32.2124C24.4526 32.5326 24.6545 32.8285 24.8808 33.1662C24.7485 33.309 24.6127 33.4587 24.47 33.6014C24.0592 34.0157 23.6414 34.423 23.2341 34.8442C23.0287 35.0601 22.8477 35.2063 22.4926 35.1436C22.0122 35.0566 21.5909 35.5091 21.577 36.0104C21.5631 36.5222 21.9426 36.9225 22.4508 36.9295C22.9556 36.9399 23.4151 36.5466 23.3455 36.0522C23.2829 35.6345 23.4674 35.4151 23.7215 35.168C24.2507 34.6562 24.7624 34.1271 25.2846 33.5979C25.6536 33.8486 25.9948 34.0783 26.3673 34.329C26.228 34.6701 26.0992 35.0218 25.9356 35.3525C25.8903 35.443 25.7476 35.4917 25.6397 35.5335C25.208 35.7145 25.0165 36.1427 25.1906 36.557C25.3507 36.933 25.7789 37.114 26.1619 36.9678C26.5762 36.8077 26.7537 36.3655 26.5796 35.9339C26.4891 35.7041 26.7258 34.7015 26.9278 34.6144C27.0461 34.5657 27.2167 34.6249 27.3594 34.6597C28.1636 34.8372 28.1636 34.8407 28.1636 35.6588V36.0348C28.1636 37.1314 28.1671 37.1419 27.1575 37.5422C23.1923 39.1227 19.1471 39.3455 15.0218 38.2698C14.7224 38.1897 14.6284 38.054 14.6353 37.7546C14.6562 36.8251 14.6423 35.8956 14.6423 34.9591C14.4787 34.9347 14.3568 34.9208 14.1932 34.8964C14.0435 33.027 13.8973 31.1471 13.7476 29.2359H11.3142C11.1645 31.1123 11.0148 32.9991 10.8651 34.9243H9.17319C9.15927 35.1158 9.15231 35.2654 9.1349 35.5091C4.58138 32.1636 1.9356 27.7702 1.15927 22.2559C1.20104 22.2176 1.24282 22.1793 1.2846 22.1445C1.39252 22.2872 1.47607 22.4508 1.60487 22.5692C2.1201 23.0461 2.73281 23.356 3.42907 23.3943C3.81201 23.4151 4.00696 23.5718 4.21932 23.8573C5.15579 25.1175 6.44038 25.6954 7.94778 25.6884C8.20191 26.1166 8.39687 26.5448 8.68581 26.9069C9.13838 27.4743 9.77894 27.7528 10.4996 27.8016C10.7363 27.819 10.8651 27.8886 10.9835 28.101C11.349 28.7415 11.9269 29.02 12.6614 28.9469C13.4204 28.8703 13.9252 28.4317 14.1236 27.7145C14.322 27.0009 14.1236 26.3777 13.5492 25.8764C13.4378 25.7789 13.389 25.5875 13.3577 25.4308C13.2637 24.9365 13.1802 24.4352 13.114 23.9373C13.0931 23.7807 13.0757 23.5857 13.1453 23.4569C13.866 22.1549 13.5178 20.658 12.2959 19.812C12.1497 19.7111 12.0209 19.5439 11.9408 19.3803C11.1715 17.8068 9.9356 16.9051 8.18103 16.7171C7.98956 16.6963 7.80505 16.5814 7.61706 16.5013C6.78155 16.1532 6.24543 15.5196 5.70931 14.792C4.93647 13.7441 3.78068 13.3438 2.46475 13.4691C2.38468 13.4761 2.30461 13.4691 2.21758 13.4691C4.15666 7.51262 10.423 1.396 19.0252 0.974761C28.8285 0.494343 35.6101 7.1436 37.6884 13.0479H29.7859C29.7859 13.0479 29.7789 13.0722 29.772 13.0827L29.7546 13.114L29.3298 13.8346H29.3264C30.7607 13.8346 32.1915 13.8312 33.6258 13.8312C35.06 13.8312 36.4909 13.8346 37.9252 13.8346C37.953 13.8346 37.9774 13.8486 38.1201 13.8869C38.3568 14.9974 38.6841 16.1497 38.8442 17.3264C39.3977 21.3681 38.7328 25.215 36.8077 28.8216C36.4978 29.396 36.0453 29.8555 35.248 29.7789Z" fill="#E8E8E4"/>
<path d="M28.4456 27.1053C26.8164 27.1158 25.49 28.4595 25.49 30.0957C25.4935 31.7145 26.8442 33.0688 28.463 33.0757C30.0748 33.0792 31.436 31.718 31.4395 30.0992C31.4465 28.4561 30.0818 27.0949 28.4456 27.1053Z" fill="#E8E8E4"/>
<path d="M11.1854 14.4891C11.1854 14.4891 11.1923 14.4926 11.1958 14.4961C11.074 14.3325 10.9591 14.1654 10.8547 13.9983C10.9278 14.1828 11.0775 14.3255 11.1854 14.4891Z" fill="#E8E8E4"/>
</g>
</g>
<defs>
<filter id="filter0_b_1015_1511" x="-4" y="-4" width="48" height="48" filterUnits="userSpaceOnUse" color-interpolation-filters="sRGB">
<feFlood flood-opacity="0" result="BackgroundImageFix"/>
<feGaussianBlur in="BackgroundImageFix" stdDeviation="2"/>
<feComposite in2="SourceAlpha" operator="in" result="effect1_backgroundBlur_1015_1511"/>
<feBlend mode="normal" in="SourceGraphic" in2="effect1_backgroundBlur_1015_1511" result="shape"/>
</filter>
<filter id="filter1_b_1015_1511" x="-3.1665" y="-3.16663" width="46.3335" height="46.3334" filterUnits="userSpaceOnUse" color-interpolation-filters="sRGB">
<feFlood flood-opacity="0" result="BackgroundImageFix"/>
<feGaussianBlur in="BackgroundImageFix" stdDeviation="2"/>
<feComposite in2="SourceAlpha" operator="in" result="effect1_backgroundBlur_1015_1511"/>
<feBlend mode="normal" in="SourceGraphic" in2="effect1_backgroundBlur_1015_1511" result="shape"/>
</filter>
<clipPath id="clip0_1015_1511">
<rect width="40" height="40" fill="white"/>
</clipPath>
</defs>
</svg>
