<svg width="40" height="40" viewBox="0 0 40 40" fill="none" xmlns="http://www.w3.org/2000/svg">
<g id="Categories / Marine" opacity="0.5" clip-path="url(#clip0_1015_1617)" filter="url(#filter0_b_1015_1617)">
<g id="Ellipse 50" filter="url(#filter1_b_1015_1617)">
<circle cx="20.0002" cy="20" r="19.1667" fill="#003247"/>
</g>
<path id="Vector" fill-rule="evenodd" clip-rule="evenodd" d="M0 20C0 8.97128 8.97128 0 20 0C31.0287 0 40 8.97128 40 20C40 31.0287 31.0287 40 20 40C8.97128 40 0 31.0287 0 20ZM3.62337 29.3934C3.88016 29.7982 4.13635 30.202 4.41427 30.5901C4.51175 30.7258 4.74151 30.8268 4.91558 30.8372C5.55614 30.8721 6.08181 30.5587 6.59356 30.2071C7.60661 29.5109 8.71714 29.5178 9.73716 30.2037C9.78047 30.2325 9.82365 30.262 9.86692 30.2916C10.0532 30.4188 10.2411 30.5471 10.4473 30.6319C11.2411 30.9695 12.0209 30.9382 12.7798 30.4961C11.1053 27.9687 6.20366 27.1854 3.36989 28.9956C3.45497 29.128 3.5392 29.2608 3.62337 29.3934ZM10.0261 19.1506V18.3882H4.40731V19.1506H10.0261ZM7.21671 12.376C6.72585 12.9956 6.2698 13.5666 5.77198 14.1897H8.66493C8.58796 14.0931 8.51204 13.9978 8.43694 13.9035C8.01944 13.3793 7.62683 12.8864 7.21671 12.376ZM6.00174 20.3377C5.75457 20.3342 5.67102 20.4421 5.63272 20.6754C5.57017 21.0531 5.49264 21.4275 5.41509 21.8021C5.38044 21.9695 5.34578 22.1369 5.31245 22.3046C5.25031 22.6322 5.1892 22.9588 5.12746 23.2888C5.07503 23.5689 5.02215 23.8515 4.9678 24.1392H9.42385C9.42649 24.1075 9.43065 24.0798 9.4344 24.0547C9.44052 24.0139 9.44557 23.9802 9.44125 23.9478C9.41076 23.791 9.38034 23.6342 9.34992 23.4774C9.16152 22.5063 8.97318 21.5356 8.76936 20.5674C8.74848 20.4769 8.56745 20.3551 8.45953 20.3516C7.99739 20.3418 7.53635 20.3419 7.07579 20.3421C6.71758 20.3422 6.35966 20.3423 6.00174 20.3377ZM9.76153 25.5527C9.64317 24.9469 9.63969 24.9469 8.99913 24.9469H4.80766C4.68318 25.5864 4.56041 26.2156 4.43216 26.8729C4.37748 27.1532 4.32181 27.4385 4.26458 27.7319C6.28372 27.0949 8.2054 27.1123 10.1654 27.725C10.0986 27.3686 10.035 27.0243 9.97254 26.687C9.90144 26.3026 9.83198 25.9271 9.76153 25.5527ZM38.1584 25.5352C38.3185 25.0305 38.4648 24.5152 38.5936 23.9861C38.6388 23.8085 38.6806 23.631 38.7189 23.4534C38.6736 23.5161 38.6353 23.5822 38.6005 23.6553C38.5587 23.7424 38.5274 23.8329 38.4961 23.9269C36.3864 30.3499 30.7781 32.2785 25.671 31.9896C25.3751 31.9721 25.2498 31.8294 25.2393 31.5544C25.2294 31.25 25.2177 30.9457 25.2061 30.6413C25.177 29.8804 25.1478 29.1195 25.1453 28.3586C25.143 28.0646 25.1931 27.7707 25.244 27.4713C25.2685 27.3275 25.2932 27.1825 25.3124 27.0357C25.1875 27.0277 25.0645 27.0197 24.9428 27.0118C24.6407 26.9921 24.3465 26.973 24.0487 26.9556C24.0506 26.9678 24.052 26.9799 24.0533 26.9918C24.057 27.0242 24.0604 27.0545 24.0731 27.0775C24.9713 28.658 25.0026 30.3603 24.7763 32.0975C24.745 32.3272 24.7032 32.5048 24.3899 32.5152C22.6319 32.5918 20.926 32.3864 19.2863 31.7145C19.1158 31.6414 18.9034 31.5822 18.7293 31.6171C17.8695 31.7876 17.121 31.5753 16.4143 31.074C15.3177 30.3011 14.2802 30.3325 13.1697 31.0775C12.839 31.2968 12.47 31.4882 12.0905 31.5927C11.2097 31.8399 10.4265 31.5683 9.70931 31.0322C9.05831 30.5483 8.30635 30.3359 7.54743 30.611C7.01261 30.8052 6.50588 31.0755 5.99536 31.3478C5.76483 31.4707 5.53353 31.5941 5.29852 31.7111C5.34052 31.7617 5.3847 31.8101 5.42859 31.8583C5.50841 31.9458 5.58724 32.0322 5.65013 32.1288C5.84856 32.4386 6.06788 32.4769 6.34987 32.2332C7.37685 31.342 8.89121 31.349 9.99478 32.2193C10.3116 32.47 10.7676 32.5953 11.1784 32.6719C11.9269 32.8146 12.5849 32.5326 13.1976 32.094C14.2141 31.3734 15.3664 31.342 16.3446 32.0522C17.2811 32.738 18.2489 32.8947 19.3525 32.4352C19.436 33.2811 19.3072 33.4273 18.4891 33.5144C17.6884 33.5979 17.0026 33.3542 16.3481 32.8912C15.3281 32.1741 14.2733 32.195 13.2463 32.8912C11.9443 33.772 11.0113 33.7476 9.70931 32.9051C9.302 32.644 8.80418 32.4839 8.32724 32.3899C7.65535 32.2611 6.83029 32.6057 6.51001 33.0618C6.61743 33.1086 6.69274 33.2016 6.76808 33.2948C6.90026 33.4582 7.03254 33.6217 7.33855 33.5352C8.21584 33.2881 9.03046 33.4204 9.79286 33.9565C10.98 34.7885 11.9687 34.8164 13.1279 33.9809C14.148 33.2463 15.537 33.2393 16.4943 33.9983C17.1523 34.5205 17.9112 34.6841 18.7328 34.503C18.878 34.4716 19.0199 34.4233 19.1631 34.3745C19.2258 34.3532 19.2888 34.3317 19.3525 34.3116C19.4325 35.1471 19.3281 35.2724 18.5553 35.356C17.7929 35.4395 17.114 35.2794 16.463 34.8407C16.0731 34.5762 15.6066 34.3777 15.1471 34.2802C14.423 34.1236 13.7615 34.3742 13.1558 34.8024C12.0209 35.6031 10.9904 35.5962 9.83116 34.8338C9.79726 34.8112 9.7633 34.7881 9.72918 34.765C9.53205 34.6312 9.33014 34.4942 9.11053 34.423C8.86329 34.3462 8.6028 34.3058 8.34163 34.2653C8.22403 34.247 8.10629 34.2288 7.98956 34.2071C7.98818 34.2163 7.98681 34.2254 7.98545 34.2344C7.97643 34.2941 7.96775 34.3516 7.96171 34.409C13.8764 38.799 20.3446 39.9513 27.255 37.2115C30.5448 35.906 33.1488 33.9739 35.0844 31.4778C35.2167 31.3107 35.342 31.1401 35.4674 30.9661C35.5648 30.8303 35.6588 30.6945 35.7493 30.5587C35.8364 30.4299 35.9199 30.3011 36.0035 30.1723C36.0835 30.0505 36.1601 29.9286 36.2332 29.8033C36.3621 29.5979 36.4839 29.3855 36.6023 29.1697C36.6162 29.1454 36.6301 29.1209 36.6406 29.0966C36.6858 29.0165 36.7311 28.9365 36.7728 28.8564C36.839 28.7311 36.9016 28.6023 36.9643 28.4735C36.9655 28.4711 36.967 28.4688 36.9686 28.4665C36.9717 28.4618 36.9748 28.4572 36.9748 28.4526C36.9946 28.4128 37.0145 28.3739 37.0342 28.3352C37.0733 28.2587 37.1118 28.1831 37.1488 28.1044C37.215 27.9652 37.2776 27.8259 37.3403 27.6867C37.403 27.5474 37.4621 27.4082 37.5213 27.2654C37.5231 27.2618 37.5249 27.2585 37.5267 27.2552C37.5316 27.2459 37.5361 27.2375 37.5387 27.2272C37.5909 27.1018 37.6397 26.98 37.6884 26.8512C37.7337 26.7433 37.7755 26.6353 37.8138 26.5274C37.8764 26.3638 37.9356 26.2002 37.9913 26.0366C38.0505 25.8695 38.1062 25.7023 38.1584 25.5352ZM24.463 10.7607C21.9669 13.2115 19.4708 15.6658 16.9817 18.1236C16.8982 18.2037 16.8146 18.3255 16.8111 18.4299C16.7659 19.2028 16.9678 19.9304 17.2045 20.6963C17.2463 20.6656 17.2837 20.6396 17.3176 20.6161C17.3797 20.5731 17.4298 20.5384 17.4726 20.4978C19.8399 18.1723 22.2071 15.8468 24.5709 13.5178C24.6754 13.4099 24.7728 13.2393 24.7763 13.0966C24.7919 12.4767 24.7901 11.8568 24.7881 11.198C24.7874 10.9726 24.7868 10.7426 24.7868 10.5065C24.7308 10.55 24.6833 10.5851 24.6419 10.6157C24.5673 10.6708 24.5123 10.7114 24.463 10.7607ZM24.4839 9.94952C19.4291 10.3742 16.8494 14.7154 16.9086 17.3821C18.419 15.901 19.9217 14.4263 21.4382 12.9381C22.4453 11.9497 23.4585 10.9555 24.4839 9.94952ZM22.3131 25.2678C22.604 25.466 22.8963 25.665 23.1923 25.866C25.6629 23.4441 28.137 21.0152 30.6111 18.5864L30.6144 18.5831C30.6092 18.5657 30.6031 18.5483 30.597 18.5309C30.5909 18.5135 30.5849 18.4961 30.5796 18.4787C30.3509 18.4787 30.1221 18.477 29.8933 18.4753C29.3214 18.471 28.7495 18.4667 28.1775 18.4891C27.9547 18.4996 27.6902 18.6075 27.5335 18.7607C26.2072 20.0278 24.9018 21.3123 23.5963 22.5969C23.122 23.0643 22.6537 23.538 22.1876 24.0095C21.9559 24.2439 21.7247 24.4778 21.4935 24.7102C21.7668 24.8958 22.0394 25.0814 22.3131 25.2678ZM31.9373 18.4717C31.6519 18.4613 31.45 18.5587 31.2446 18.7572C30.0163 19.9666 28.7844 21.1723 27.5524 22.3779C26.7311 23.1817 25.9098 23.9854 25.0896 24.7903C24.7838 25.0913 24.4863 25.3973 24.166 25.7267C24.0233 25.8735 23.876 26.025 23.7215 26.1828C23.9074 26.192 24.0844 26.1997 24.2555 26.2072C24.6002 26.2222 24.9206 26.2361 25.2393 26.2594C25.5004 26.2802 25.6049 26.1619 25.7337 25.9426C25.7912 25.8431 25.8483 25.7429 25.9055 25.6426C26.2329 25.0686 26.5637 24.4884 26.9904 23.9965C28.0592 22.7502 29.5004 22.0644 31.0392 21.5596C31.2794 21.483 31.5091 21.3333 31.7006 21.1662C31.876 21.011 32.041 20.8433 32.2062 20.6755C32.4114 20.467 32.6168 20.2583 32.8425 20.0731C33.3473 19.6623 33.4134 19.1297 33.3856 18.4787C33.238 18.4787 33.0937 18.4799 32.9517 18.481C32.6045 18.4838 32.2709 18.4865 31.9373 18.4717ZM25.6635 19.7681C26.0036 19.4334 26.3438 19.0987 26.6841 18.7641C26.7311 18.7194 26.7703 18.6652 26.824 18.5906C26.8498 18.5549 26.8789 18.5145 26.9138 18.4682H24.8146C24.7972 18.2594 24.7833 18.0853 24.7624 17.7963C23.7043 18.8341 22.6658 19.8532 21.624 20.8756C20.7053 21.7772 19.7839 22.6814 18.8442 23.6031C18.9459 23.663 19.0409 23.7225 19.1323 23.7797C19.3227 23.8989 19.4974 24.0082 19.6832 24.0905C19.9756 24.2158 20.2855 24.3098 20.5953 24.3725C20.7415 24.4003 20.9608 24.3725 21.0583 24.2785C22.5995 22.7829 24.1314 21.2756 25.6635 19.7681ZM21.7163 17.1245C20.3655 18.4473 19.0183 19.7702 17.678 21.1001C17.5875 21.1871 17.49 21.3925 17.5318 21.4691C17.7463 21.8777 17.9814 22.2751 18.2262 22.6887C18.3151 22.8389 18.4052 22.9913 18.4961 23.1471C18.7555 22.8929 19.0137 22.6398 19.271 22.3877C21.0924 20.6027 22.8643 18.8663 24.6336 17.1245C24.7067 17.0548 24.7763 16.9399 24.7798 16.8425C24.7868 15.9758 24.7868 15.1057 24.7868 14.2356C24.7537 14.2095 24.7207 14.1837 24.6876 14.1584C24.6545 14.1332 24.6214 14.1079 24.5883 14.0818C24.5672 14.1263 24.5496 14.174 24.5321 14.2216C24.4947 14.3229 24.4575 14.4239 24.3864 14.4926C23.7678 15.1112 23.1441 15.723 22.52 16.3352C22.252 16.598 21.984 16.8609 21.7163 17.1245ZM38.698 20.7102C38.8094 20.7067 38.886 20.6963 38.9417 20.6684C39.0461 20.6197 39.0705 20.5187 39.0705 20.3412C39.0775 16.6301 38.1897 13.2185 36.2437 10.2245C36.242 10.2228 36.2411 10.2211 36.2402 10.2193C36.2393 10.2176 36.2385 10.2158 36.2367 10.2141C35.7876 9.5248 35.2829 8.85988 34.7224 8.21932C29.6641 2.44386 23.2585 0.295909 15.7702 1.91471C5.24978 4.19147 -1.40644 14.9521 1.95997 25.5909C2.15504 26.2114 2.40248 26.8145 2.64979 27.4172C2.7688 27.7072 2.88777 27.9972 3.00087 28.2889C3.06353 28.2959 3.1262 28.2994 3.18886 28.3029C3.21862 28.2533 3.25361 28.2047 3.28865 28.1561C3.36427 28.0512 3.44009 27.946 3.46388 27.8294C3.76186 26.348 4.05076 24.8642 4.33974 23.3801C4.40864 23.0262 4.47753 22.6724 4.54656 22.3185C4.63873 21.8451 4.72963 21.373 4.82307 20.8877C4.88492 20.5665 4.94788 20.2395 5.01305 19.9025H3.67624V17.6466H4.9295V14.9591C4.8259 14.9492 4.73006 14.9409 4.63098 14.9323C4.52032 14.9227 4.40562 14.9128 4.27154 14.8999C4.62667 14.4539 4.97659 14.0147 5.32391 13.5789C5.96057 12.7799 6.58848 11.992 7.22367 11.1923C8.2228 12.4491 9.17667 13.6501 10.1723 14.9069C10.0553 14.9159 9.9518 14.9242 9.85634 14.9319C9.73035 14.9421 9.61831 14.9512 9.5074 14.9591V17.6571H10.7676V19.9234H9.47258C9.47258 19.9662 9.47104 20.0008 9.46974 20.0301C9.46764 20.0771 9.46615 20.1106 9.47258 20.1427C9.97041 22.7293 10.4717 25.3194 10.98 27.9025C10.9974 28 11.067 28.1253 11.1471 28.1671C12.0453 28.6336 12.8146 29.2567 13.4099 30.0644C14.51 29.5074 15.5196 29.5805 16.4978 30.2802C16.6892 30.4166 16.9004 30.5267 17.1109 30.6364C17.2067 30.6864 17.3024 30.7363 17.396 30.7885C17.4204 30.7572 17.4413 30.7293 17.4621 30.698C15.1158 28.9191 14.0679 26.4613 13.671 23.5196C15.1645 23.5788 16.5849 23.6345 17.9774 23.6867C15.4569 20.1532 15.2654 16.4839 17.8103 12.8634C19.6379 10.2628 22.3116 9.16275 25.5248 9.14882V17.7511H34.1271C34.2419 18.8512 34.0261 19.8747 33.7163 20.9399L33.7451 20.9377C33.9543 20.9213 34.1209 20.9083 34.2907 20.9017C34.6364 20.8853 34.9821 20.8681 35.3278 20.851C36.4512 20.7952 37.5746 20.7395 38.698 20.7102ZM8.66667 15H5.83333V17.5H8.66667V15Z" fill="#E8E8E4"/>
</g>
<defs>
<filter id="filter0_b_1015_1617" x="-4" y="-4" width="48" height="48" filterUnits="userSpaceOnUse" color-interpolation-filters="sRGB">
<feFlood flood-opacity="0" result="BackgroundImageFix"/>
<feGaussianBlur in="BackgroundImageFix" stdDeviation="2"/>
<feComposite in2="SourceAlpha" operator="in" result="effect1_backgroundBlur_1015_1617"/>
<feBlend mode="normal" in="SourceGraphic" in2="effect1_backgroundBlur_1015_1617" result="shape"/>
</filter>
<filter id="filter1_b_1015_1617" x="-3.1665" y="-3.16663" width="46.3335" height="46.3334" filterUnits="userSpaceOnUse" color-interpolation-filters="sRGB">
<feFlood flood-opacity="0" result="BackgroundImageFix"/>
<feGaussianBlur in="BackgroundImageFix" stdDeviation="2"/>
<feComposite in2="SourceAlpha" operator="in" result="effect1_backgroundBlur_1015_1617"/>
<feBlend mode="normal" in="SourceGraphic" in2="effect1_backgroundBlur_1015_1617" result="shape"/>
</filter>
<clipPath id="clip0_1015_1617">
<rect width="40" height="40" fill="white"/>
</clipPath>
</defs>
</svg>
