<svg width="40" height="40" viewBox="0 0 40 40" fill="none" xmlns="http://www.w3.org/2000/svg">
<g id="Categories / Urban" opacity="0.5" clip-path="url(#clip0_1015_2019)" filter="url(#filter0_b_1015_2019)">
<g id="Ellipse 50" filter="url(#filter1_b_1015_2019)">
<circle cx="20.0002" cy="20" r="19.1667" fill="#003247"/>
</g>
<g id="Vector">
<path d="M20.2087 0.843892C14.9085 0.672569 9.89124 2.59908 6.06192 6.25982C2.22562 9.92754 0.073372 14.9344 0 20.3573V20.3678C0.0559025 31.0528 8.37489 39.6714 18.9335 39.9896C19.1431 39.9966 19.3492 40.0001 19.5554 40.0001C24.6984 40.0001 29.527 38.0771 33.2026 34.5457C36.9865 30.9164 39.1038 26.011 39.1667 20.7349C39.2959 9.92055 30.9665 1.18304 20.2087 0.843892ZM32.4793 33.7905C28.8562 37.2659 24.059 39.098 18.9649 38.9407C8.97584 38.64 1.10407 30.4829 1.04817 20.3678C1.11805 15.2316 3.15849 10.4905 6.78866 7.01853C10.4083 3.5536 15.167 1.73198 20.1738 1.88932C30.3585 2.21098 38.2408 10.4835 38.1185 20.7209C38.0591 25.7138 36.0571 30.3535 32.4793 33.7905Z" fill="#E8E8E4"/>
<path d="M25.3098 18.0147H23.2484V20.4692H25.3098V18.0147Z" fill="#E8E8E4"/>
<path d="M28.395 18.0147H26.3336V20.4692H28.395V18.0147Z" fill="#E8E8E4"/>
<path d="M31.4067 18.0147H29.3453V20.4692H31.4067V18.0147Z" fill="#E8E8E4"/>
<path d="M11.2399 9.46948H9.17849V11.924H11.2399V9.46948Z" fill="#E8E8E4"/>
<path d="M14.3215 9.46948H12.2601V11.924H14.3215V9.46948Z" fill="#E8E8E4"/>
<path d="M11.2399 13.7211H9.17849V16.1756H11.2399V13.7211Z" fill="#E8E8E4"/>
<path d="M14.3215 13.7211H12.2601V16.1756H14.3215V13.7211Z" fill="#E8E8E4"/>
<path d="M11.2399 17.8154H9.17849V20.2699H11.2399V17.8154Z" fill="#E8E8E4"/>
<path d="M14.3215 17.8154H12.2601V20.2699H14.3215V17.8154Z" fill="#E8E8E4"/>
<path d="M11.2399 22.0705H9.17849V24.525H11.2399V22.0705Z" fill="#E8E8E4"/>
<path d="M14.3215 22.0705H12.2601V24.525H14.3215V22.0705Z" fill="#E8E8E4"/>
<path d="M32.8008 22.518V16.6021C32.7973 15.9973 32.7414 15.9378 32.123 15.9378C30.1559 15.9378 28.1888 15.9238 26.2218 15.9483C25.778 15.9553 25.6977 15.8154 25.7012 15.4064C25.7151 12.0568 25.7081 8.70727 25.7081 5.35772C25.7081 4.6899 25.6697 4.65494 24.9919 4.65494H15.8693C15.1635 4.65494 15.1356 4.68291 15.1356 5.38219V7.14088H8.32947C7.65514 7.14088 7.60972 7.18633 7.60972 7.85065V26.1019H5.10809C5.28278 26.9375 5.40856 27.7207 5.61121 28.4829C6.32397 31.1891 7.64466 33.5247 9.96112 35.182C12.5396 37.0316 15.464 37.584 18.5701 37.3812C18.6819 37.3743 18.8531 37.168 18.8706 37.0351C19.1221 35.3813 19.1641 33.731 18.6854 32.1017C18.6574 32.0038 18.6574 31.8954 18.64 31.773H19.3353C19.3353 31.9269 19.3457 32.0352 19.3353 32.1436C19.2235 33.5387 19.2968 34.9268 19.496 36.3148C19.5344 36.5911 19.6218 36.7169 19.9327 36.7379C21.3023 36.8358 22.6615 36.7869 24.0171 36.5771C29.6073 35.7065 33.531 32.7275 35.5994 27.4095C36.2108 25.8466 36.5812 24.2208 36.7908 22.518H32.8008ZM32.0286 16.7105V22.574C31.819 22.5915 31.6128 22.6124 31.4067 22.6334V22.2698H29.3453V22.9131C29.0239 22.9691 28.7059 23.0285 28.3915 23.1019V22.2698H26.3336V23.6754C25.9877 23.7977 25.6453 23.9341 25.3098 24.0844V22.2698H23.2484V24.7243H24.045C23.4092 25.0914 22.7942 25.5249 22.2038 26.0284V16.7105H32.0286ZM8.38886 7.91708H15.1111V27.7557C14.8491 27.6123 14.5871 27.4794 14.3215 27.3606V25.9131H12.2601V26.6788C11.9212 26.5948 11.5823 26.5284 11.2399 26.469V25.9131H9.17849V26.1963C8.91644 26.1683 8.65091 26.1438 8.38886 26.1193V7.91708ZM17.9167 35.6925C17.4136 36.0072 17.3333 35.9897 17.0922 35.5876C16.2222 34.1366 15.2649 32.7555 14.063 31.5527C12.7353 30.2276 11.1945 29.2241 9.55233 28.371C9.42655 28.3046 9.30427 28.2417 9.17849 28.1822C8.93042 28.0563 8.67886 27.934 8.4273 27.8151C8.30501 27.7557 8.17923 27.6962 8.05694 27.6368C8.43428 27.7592 8.80813 27.885 9.17849 28.0214C9.46848 28.1298 9.75498 28.2451 10.038 28.371C10.4188 28.5388 10.7927 28.7277 11.1525 28.9444C11.764 29.315 12.4034 29.6367 12.9868 30.0493C13.9337 30.7206 14.7967 31.4723 15.6003 32.3185C16.4423 33.203 17.1795 34.1541 17.8469 35.168C17.9482 35.3184 18.2591 35.4827 17.9167 35.6925ZM19.5868 30.5598C19.517 30.8674 19.3842 30.9374 19.0837 30.9619C18.5317 31.0073 18.2207 30.8325 17.8923 30.336C17.4346 29.6402 16.7917 29.0563 16.1977 28.4584C16.0196 28.2766 15.9043 28.1403 15.9043 27.871C15.9112 20.5286 15.9043 13.1897 15.9112 5.85071C15.9112 5.72833 15.9217 5.60596 15.9287 5.44513H24.908C24.915 5.60946 24.929 5.7598 24.929 5.91015C24.9325 9.0604 24.922 12.2142 24.9395 15.3679C24.943 15.798 24.8207 15.9238 24.4014 15.9064C23.6223 15.8784 22.8397 15.8924 22.0605 15.9029C21.505 15.9099 21.4037 16.0217 21.4037 16.5742C21.4037 19.8538 21.4106 23.1299 21.3932 26.4095C21.3932 26.6648 21.2953 26.9585 21.1451 27.1613C20.3939 28.1927 19.8663 29.3185 19.5868 30.5598ZM31.5604 25.2278C29.0658 26.49 26.7738 28.0319 24.8626 30.0947C23.8564 31.1821 22.9829 32.3709 22.1758 33.6121C21.7985 34.1925 21.4421 34.7904 21.0438 35.3463C20.8027 35.682 20.4498 35.1645 20.1214 35.1016C19.8908 35.0561 19.9712 34.8848 20.0655 34.745C20.2856 34.4233 20.5022 34.1016 20.7258 33.78C22.6056 31.0632 24.8137 28.6822 27.6612 26.9445C29.6038 25.7557 31.6792 24.8501 33.842 24.1124C33.0803 24.483 32.3151 24.8466 31.5604 25.2278Z" fill="#E8E8E4"/>
</g>
</g>
<defs>
<filter id="filter0_b_1015_2019" x="-4" y="-4" width="48" height="48" filterUnits="userSpaceOnUse" color-interpolation-filters="sRGB">
<feFlood flood-opacity="0" result="BackgroundImageFix"/>
<feGaussianBlur in="BackgroundImageFix" stdDeviation="2"/>
<feComposite in2="SourceAlpha" operator="in" result="effect1_backgroundBlur_1015_2019"/>
<feBlend mode="normal" in="SourceGraphic" in2="effect1_backgroundBlur_1015_2019" result="shape"/>
</filter>
<filter id="filter1_b_1015_2019" x="-3.1665" y="-3.16663" width="46.3335" height="46.3334" filterUnits="userSpaceOnUse" color-interpolation-filters="sRGB">
<feFlood flood-opacity="0" result="BackgroundImageFix"/>
<feGaussianBlur in="BackgroundImageFix" stdDeviation="2"/>
<feComposite in2="SourceAlpha" operator="in" result="effect1_backgroundBlur_1015_2019"/>
<feBlend mode="normal" in="SourceGraphic" in2="effect1_backgroundBlur_1015_2019" result="shape"/>
</filter>
<clipPath id="clip0_1015_2019">
<rect width="40" height="40" fill="white"/>
</clipPath>
</defs>
</svg>
